<?xml version="1.0" encoding="utf-8"?>
<!-- Generator: Adobe Illustrator 23.0.0, SVG Export Plug-In . SVG Version: 6.00 Build 0)  -->
<svg version="1.1" xmlns="http://www.w3.org/2000/svg" xmlns:xlink="http://www.w3.org/1999/xlink" x="0px" y="0px"
	 viewBox="0 0 500 500" style="enable-background:new 0 0 500 500;" xml:space="preserve">
<style type="text/css">
	.st0{opacity:0.47;}
	.st1{fill:#29C0FF;}
	.st2{fill:#FCE0B4;}
	.st3{fill:#F2C386;}
	.st4{fill:#DBDBDB;}
	.st5{fill:#7F7F7F;}
	.st6{fill:#F9F9F9;}
	.st7{fill:#AAAAAA;}
	.st8{fill:#FFA561;}
	.st9{fill:#C6C6C6;}
	.st10{fill:#B8D5FF;}
	.st11{fill:#969696;}
	.st12{fill:#A5A5A5;}
	.st13{fill:#73A7F9;}
	.st14{fill:#6371FC;}
	.st15{fill:#58DC8F;}
	.st16{fill:#E1F0FF;}
	.st17{fill:#5E5E5E;}
	.st18{fill:#FAAA91;}
	.st19{fill:#824F0C;}
	.st20{fill:#70869B;}
	.st21{fill:#596F82;}
	.st22{fill:#EF9E89;}
	.st23{fill:#6392FC;}
	.st24{fill:#878787;}
	.st25{fill:#BFBFBF;}
	.st26{fill:#E8E8E8;}
	.st27{display:none;}
	.st28{display:inline;}
	.st29{fill:#1D262D;}
</style>
<g id="BACKGROUND">
	<g class="st0">
		<path class="st1" d="M441.6,100.96c-5.72-0.06-11.43-0.14-17.14-0.51c-5.04-0.33-10.1-0.49-15.14-0.84
			c-5.41-0.37-10.82-0.86-16.22-1.33c-4.91-0.43-9.82-0.88-14.73-1.37c-8.2-0.83-16.38-1.89-24.49-3.38
			c-8.84-1.61-17.66-3.33-26.43-5.25c-8.99-1.97-17.75-4.72-26.45-7.68c-14.13-4.82-28.24-9.73-42.41-14.42
			c-16.57-5.49-33.01-11.36-49.48-17.15c-12.06-4.24-24.36-7.75-36.74-10.98c-7.41-1.93-14.82-3.87-22.3-5.5
			c-8.46-1.84-16.99-3.33-25.6-4.26c-3.95-0.43-7.93-0.65-11.9-0.84c-4.6-0.21-9.2-0.26-13.8-0.13c-15.5,0.43-30.42,3.42-44.6,9.74
			c-8.32,3.71-15.61,8.92-22.39,14.89c-2.93,2.58-5.37,5.56-7.51,8.79c-1.82,2.76-3.23,5.68-4.1,8.89
			c-1.09,4.04-2.02,8.09-2.39,12.26c-0.44,5.05,0.37,9.95,1.75,14.78c0.53,1.85,1.12,3.68,1.71,5.51c1.48,4.65,3.93,8.82,6.68,12.82
			c2.36,3.44,5.21,6.46,8.15,9.41c2.56,2.57,5.65,4.44,8.94,5.92c7.43,3.35,15.18,5.66,23.32,6.58c3.8,0.43,7.62,0.34,11.43,0.24
			c7.04-0.19,14.08-0.6,21.07-1.47c9.47-1.17,18.79-3.1,27.9-5.92c0.55-0.17,1.11-0.32,1.68-0.44c0.27-0.06,0.61-0.12,0.77,0.21
			c0.17,0.36-0.05,0.64-0.34,0.83c-0.48,0.32-0.95,0.66-1.47,0.91c-2.34,1.15-4.65,2.35-7.08,3.29c-5.36,2.08-10.68,4.27-16.27,5.69
			c-3.22,0.81-6.5,1.25-9.78,1.74c-4.05,0.61-8.11,1.24-12.19,1.62c-3.97,0.37-7.94,0.38-11.92,0.05
			c-3.88-0.31-7.77-0.58-11.65-0.91c-5.85-0.48-11.35-2.22-16.72-4.47c-7.3-3.06-13.98-7.12-20.2-11.95
			c-4.02-3.12-7.19-6.96-9.83-11.29c-3.63-5.95-5.69-12.4-6.97-19.16C5.8,90.82,5.08,85.73,5.32,80.55
			c0.32-7.04,1.08-14.02,3.04-20.83c2.52-8.73,7.2-16.18,13.6-22.66c8.23-8.34,17.95-14.28,29.05-18.14
			c7.44-2.58,15.07-4.48,22.82-5.88c7.91-1.43,15.89-2.39,23.93-2.83c6.01-0.33,12.01-0.25,18.02,0.05
			c16.2,0.82,32.08,3.49,47.73,7.72c21.65,5.86,42.75,13.25,63.43,21.82c15.2,6.3,30.34,12.75,45.71,18.66
			c19.61,7.54,39.45,14.48,59.62,20.4c12.55,3.68,25.28,6.7,38.19,8.93c10.08,1.74,20.2,3.23,30.37,4.42
			c6.87,0.8,13.76,1.44,20.65,2.07c6.44,0.59,12.87,1.19,19.32,1.61c9.77,0.63,19.55,0.74,29.33,0.47
			c4.84-0.13,9.68-0.45,14.52-0.82c3.92-0.3,7.85-0.62,11.76-0.98c0.33-0.03,0.66-0.02,0.99,0.01c0.25,0.02,0.49,0.13,0.54,0.42
			c0.04,0.28-0.11,0.47-0.33,0.61c-0.32,0.2-0.67,0.32-1.04,0.4c-5.8,1.18-11.55,2.54-17.49,2.97c-6.11,0.45-12.23,0.94-18.34,1.35
			c-5.21,0.34-10.43,0.61-15.65,0.62C443.92,100.96,442.76,100.96,441.6,100.96z"/>
		<path class="st1" d="M465.58,0.76c-0.22,0.33-0.59,0.47-0.91,0.66c-19.6,11.28-36.49,25.62-51.1,42.55
			c-6.74,7.81-13.37,15.69-19.2,24.17c-4.15,6.04-7.83,12.32-10.5,19.12c-1.96,5-3.41,10.14-3.9,15.49
			c-0.4,4.32-0.17,8.56,1.39,12.72c1.32,3.52,3.82,5.82,7.15,7.37c3.14,1.46,6.48,2.24,9.96,2.57c4.48,0.43,8.94,0.19,13.41-0.1
			c4.59-0.3,9.18-0.65,13.78-0.94c4.38-0.28,8.76-0.59,13.16-0.47c5.38,0.14,10.73,0.58,15.98,1.77c6.66,1.51,12.74,4.19,17.8,8.78
			c3.14,2.85,5.67,6.18,7.8,9.78c1.31,2.22,2.52,4.51,3.74,6.78c3.35,6.24,5.07,12.95,6.01,19.89c0.58,4.28,0.77,8.57,0.7,12.87
			c-0.08,4.68-0.5,9.33-1.09,13.97c-0.62,4.88-1.36,9.75-2.11,14.62c-1.84,11.9-4.86,23.5-9.51,34.67
			c-5.23,12.58-10.59,25.11-17.05,37.15c-8,14.9-17.56,28.82-28.33,41.98c-12.67,15.47-26.19,30.19-40.51,44.24
			c-6.22,6.1-13.02,11.56-19.74,17.11c-5.75,4.75-11.96,8.92-18,13.32c-19,13.84-38.63,26.79-58.53,39.37
			c-12.82,8.11-25.49,16.43-38.26,24.62c-15.51,9.95-31.35,19.37-47.53,28.26c-2.48,1.36-4.99,2.7-7.38,4.22c-2.56,0-5.12,0-7.68,0
			c0.04-0.34,0.35-0.45,0.58-0.61c6.74-4.72,13.41-9.53,20.44-13.86c5.25-3.24,10.67-6.22,16.09-9.17
			c9.64-5.25,18.83-11.17,27.87-17.34c14.72-10.04,28.95-20.73,43.41-31.12c8.05-5.78,16.24-11.4,24.18-17.31
			c14.79-11,29.31-22.33,43.26-34.33c6-5.16,11.5-10.84,17.07-16.43c3.79-3.81,7.39-7.78,11.19-11.58
			c6.21-6.2,11.89-12.86,17.47-19.57c7.33-8.81,14.47-17.78,21.12-27.1c2.64-3.7,5.37-7.35,8.04-11.04c2.98-4.14,5.7-8.44,8.13-12.9
			c3.07-5.63,6.32-11.16,9.28-16.85c5.16-9.9,9.65-20.06,13.15-30.65c2.32-7.03,4.08-14.18,5.18-21.46c0.64-4.24,1.2-8.5,1.47-12.8
			c0.25-3.94,0.07-7.83-0.56-11.72c-0.62-3.84-1.21-7.69-2.36-11.41c-2.35-7.58-6.09-14.42-11.72-20.25
			c-4.06-4.2-8.66-7.69-13.92-10.36c-3.43-1.74-7.08-2.81-10.9-3.38c-4.75-0.71-9.52-1.26-14.3-1.64c-2.67-0.21-5.35-0.59-8.02-0.48
			c-5.84,0.23-11.67,0.02-17.51,0.26c-5.93,0.24-11.85-0.15-17.63-1.61c-5.81-1.46-10.44-4.73-13.87-9.4
			c-2.47-3.36-3.97-7.24-4.18-11.44c-0.28-5.64,0.01-11.3,1.64-16.73c2.45-8.17,5.91-15.92,10.84-23.04
			c5.82-8.4,12.45-16.16,19.31-23.76c6.78-7.51,14.35-14.27,21.74-21.19c7.46-6.99,15.44-13.4,23.81-19.35
			c3.09-2.2,6.29-4.27,9.54-6.25c0.32-0.19,0.71-0.31,0.88-0.68C459.09,0.76,462.33,0.76,465.58,0.76z"/>
		<path class="st1" d="M498.69,462.65c-4.94-1.57-9.88-3.18-14.84-4.7c-16.23-5-32.64-9.29-49.21-12.96
			c-11.18-2.48-22.4-4.68-33.68-6.58c-9.57-1.61-19.16-3.03-28.78-4.21c-7.86-0.97-15.72-1.83-23.6-2.55
			c-6.15-0.56-12.3-1.05-18.46-1.44c-5.66-0.36-11.33-0.62-17-0.87c-13.46-0.58-26.93-0.61-40.4-0.42
			c-6.55,0.09-13.09,0.35-19.63,0.66c-6.08,0.29-12.16,0.66-18.24,1.11c-7.89,0.59-15.77,1.35-23.63,2.22
			c-9.27,1.03-18.51,2.25-27.72,3.7c-20.65,3.24-41.1,7.49-61.32,12.88c-23.77,6.34-47.04,14.19-69.72,23.89
			c-17.2,7.36-33.91,15.72-50.04,25.32c-0.36,0.21-0.69,0.48-1.12,0.53c0-1.62,0-3.24,0-4.86c0.47,0.08,0.77-0.28,1.1-0.51
			c24.5-17.06,50.4-31.46,77.64-43.34c20.43-8.91,41.37-16.28,62.79-22.19c13.44-3.71,27.02-6.82,40.71-9.36
			c7.7-1.43,15.43-2.65,23.19-3.71c7.02-0.96,14.06-1.78,21.11-2.44c4.91-0.46,9.83-0.8,14.74-1.14c12.99-0.91,25.99-1.14,39-1.05
			c6.63,0.05,13.25,0.27,19.88,0.57c8.65,0.4,17.28,1.02,25.9,1.86c17.9,1.75,35.69,4.35,53.35,7.82
			c29.46,5.78,58.31,13.87,86.58,24.15c10.11,3.68,20.12,7.63,30.03,11.86c0.46,0.2,0.9,0.42,1.35,0.64
			C498.69,459.24,498.69,460.95,498.69,462.65z"/>
	</g>
</g>
<g id="OBJECTS">
	<g>
		<g>
			<g>
				<path class="st2" d="M53.64,247.2c-0.08,0.3-0.2,0.8-0.33,1.29c-4.16,15.29-8.31,30.58-12.47,45.87
					c-5.4,19.85-10.81,39.7-16.21,59.55c-0.22,0.82-0.37,1.66-0.57,2.49c-0.08,0.33-0.17,0.66-0.32,0.96
					c-0.14,0.29-0.41,0.44-0.75,0.3c-0.28-0.12-0.34-0.38-0.3-0.64c0.1-0.67,0.21-1.35,0.35-2.01c2.34-11.56,4.7-23.13,7.03-34.69
					c3.37-16.7,6.73-33.41,10.09-50.11c1.96-9.73,3.92-19.46,5.9-29.19c0.1-0.48,0.03-1.17,0.59-1.33c0.55-0.15,0.84,0.48,1.2,0.83
					c1.68,1.64,3.35,3.29,5,4.95C53.25,245.88,53.7,246.32,53.64,247.2z"/>
				<path class="st2" d="M104.66,281.44c-0.08,0.32-0.2,0.84-0.33,1.36c-4.16,16.12-8.31,32.24-12.47,48.36
					c-5.4,20.93-10.81,41.86-16.21,62.79c-0.22,0.87-0.37,1.75-0.57,2.63c-0.08,0.35-0.17,0.7-0.32,1.02
					c-0.14,0.3-0.41,0.46-0.75,0.32c-0.28-0.12-0.34-0.4-0.3-0.67c0.1-0.71,0.21-1.42,0.35-2.12c2.34-12.19,4.7-24.38,7.03-36.58
					c3.37-17.61,6.73-35.22,10.09-52.84c1.96-10.26,3.92-20.52,5.9-30.77c0.1-0.51,0.03-1.24,0.59-1.4c0.55-0.16,0.84,0.51,1.2,0.87
					c1.68,1.73,3.35,3.46,5,5.22C104.28,280.06,104.72,280.52,104.66,281.44z"/>
				<path class="st2" d="M403.65,231.45c0.08,0.3,0.2,0.8,0.33,1.29c4.16,15.29,8.31,30.58,12.47,45.87
					c5.4,19.85,10.81,39.7,16.21,59.55c0.22,0.82,0.37,1.66,0.57,2.49c0.08,0.33,0.17,0.66,0.32,0.96c0.14,0.29,0.41,0.44,0.75,0.3
					c0.28-0.12,0.34-0.38,0.3-0.64c-0.1-0.67-0.21-1.35-0.35-2.01c-2.34-11.56-4.7-23.13-7.03-34.69
					c-3.37-16.7-6.73-33.41-10.09-50.11c-1.96-9.73-3.92-19.46-5.9-29.19c-0.1-0.48-0.03-1.17-0.59-1.33
					c-0.55-0.15-0.84,0.48-1.2,0.83c-1.68,1.64-3.35,3.29-5,4.95C404.04,230.14,403.59,230.57,403.65,231.45z"/>
				<path class="st2" d="M455.81,281.44c0.08,0.32,0.2,0.84,0.33,1.36c4.16,16.12,8.31,32.24,12.47,48.36
					c5.4,20.93,10.81,41.86,16.21,62.79c0.22,0.87,0.37,1.75,0.57,2.63c0.08,0.35,0.17,0.7,0.32,1.02c0.14,0.3,0.41,0.46,0.75,0.32
					c0.28-0.12,0.34-0.4,0.3-0.67c-0.1-0.71-0.21-1.42-0.35-2.12c-2.34-12.19-4.7-24.38-7.03-36.58
					c-3.37-17.61-6.73-35.22-10.09-52.84c-1.96-10.26-3.92-20.52-5.9-30.77c-0.1-0.51-0.03-1.24-0.59-1.4
					c-0.55-0.16-0.84,0.51-1.2,0.87c-1.68,1.73-3.35,3.46-5,5.22C456.2,280.06,455.75,280.52,455.81,281.44z"/>
				<path class="st2" d="M224.74,223.22c60.51,0,121.03,0,181.54,0c1.19,0,2.39,0.01,3.58,0c0.44,0,0.79,0.1,1.14,0.43
					c11.44,10.55,22.9,21.09,34.35,31.63c8.95,8.23,17.89,16.45,26.84,24.68c0.13,0.12,0.26,0.22,0.38,0.35
					c0.3,0.33,0.84,0.57,0.66,1.13c-0.16,0.48-0.71,0.41-1.09,0.55c-0.34,0.13-0.75,0.08-1.13,0.08
					c-74.71-0.01-149.43-0.03-224.14-0.04c-48.02-0.01-96.04-0.02-144.05,0.02c-1.54,0-2.67-0.46-3.72-1.56
					c-2.39-2.5-5.18-4.55-7.8-6.79c-7.61-6.52-15.01-13.26-22.25-20.18c-9.78-9.34-19.62-18.6-29.44-27.9
					c-0.25-0.23-0.49-0.47-0.74-0.71c-0.39-0.38-0.4-0.86-0.24-1.31c0.16-0.44,0.61-0.39,0.99-0.39c0.38,0,0.77,0,1.15,0
					c61.32,0,122.65,0,183.97,0C224.74,223.21,224.74,223.21,224.74,223.22z"/>
				<path class="st3" d="M37.62,223.02c1.01,0.05,1.6,0.59,2.18,1.15c3.22,3.05,6.43,6.11,9.65,9.16
					c16.51,15.68,33.03,31.36,49.52,47.06c0.67,0.64,1.36,0.75,2.19,0.75c24.95,0.02,49.89,0.06,74.84,0.08
					c35.99,0.04,71.98,0.07,107.98,0.12c60.26,0.07,120.51,0.15,180.77,0.22c1.54,0,3.07,0,4.61,0.01c0.43,0,0.85,0.05,1.27,0.07
					c0.62,0.04,0.85,0.34,0.87,0.99c0.05,1.45-0.23,2.89-0.19,4.33c0.01,0.41-0.21,0.64-0.61,0.66c-0.47,0.03-0.94,0.05-1.4,0.05
					c-35.35-0.03-70.7-0.06-106.06-0.1c-55.57-0.06-111.13-0.13-166.7-0.21c-32.11-0.04-64.22-0.11-96.33-0.13
					c-2.01,0-3.57-0.64-5.03-2.03c-18.87-17.97-37.76-35.91-56.67-53.83c-0.71-0.67-1.04-1.33-1-2.32
					C37.6,227.08,37.59,225.09,37.62,223.02z"/>
			</g>
			<g>
				<path class="st4" d="M182.82,249.47c7.45-0.29,14.91-0.59,22.36-0.86c1.96-0.07,3.92-0.02,5.88-0.07
					c0.81-0.02,1.51,0.21,2.12,0.73c0.2,0.17,0.41,0.31,0.59,0.49c4.83,4.81,10.09,9.18,14.69,14.23c0.34,0.38,0.7,0.75,0.99,1.17
					c0.77,1.13,0.5,2.1-0.72,2.74c-0.71,0.38-1.47,0.41-2.24,0.37c-2.9-0.13-5.79-0.23-8.69-0.38c-4.51-0.24-9.03-0.31-13.55-0.5
					c-5.45-0.23-10.91-0.13-16.37-0.37c-4.18-0.19-8.35,0.2-12.53,0.25c-1.92,0.02-3.84-0.02-5.69-0.62
					c-1.11-0.36-2.11-0.89-3.01-1.64c-4.46-3.71-9.02-7.29-13.24-11.27c-0.4-0.38-0.84-0.73-1.18-1.17
					c-1.05-1.36-0.41-2.98,1.3-3.25c0.75-0.12,1.53-0.09,2.3-0.06c3.96,0.18,7.92,0.31,11.89,0.33c5.03,0.02,10.06,0.01,15.09,0.01
					C182.82,249.56,182.82,249.51,182.82,249.47z"/>
				<path class="st5" d="M160.69,252.66c-0.5-0.45-1-0.89-1.49-1.36c-0.29-0.28-0.78-0.58-0.34-1.04c0.43-0.44,0.78,0.02,1.08,0.27
					c0.75,0.63,1.48,1.29,2.22,1.93c0.29,0.25,0.56,0.55,0.98,0.55c2.33,0.01,4.66,0.21,7.15,0.08c-0.33-0.65-0.88-0.93-1.25-1.35
					c-0.23-0.26-0.51-0.53-0.21-0.88c0.3-0.35,0.63-0.16,0.89,0.07c0.65,0.55,1.28,1.12,1.91,1.7c0.32,0.3,0.65,0.51,1.13,0.49
					c2.29-0.09,4.58-0.16,6.97-0.23c-0.15-0.6-0.6-0.81-0.89-1.13c-0.2-0.22-0.44-0.4-0.64-0.63c-0.18-0.21-0.24-0.46-0.03-0.69
					c0.21-0.22,0.48-0.21,0.7-0.05c0.41,0.31,0.84,0.61,1.15,1c1.01,1.29,2.32,1.72,3.92,1.63c1.4-0.08,2.81-0.02,4.28-0.02
					c-0.03-0.5-0.51-0.69-0.8-1c-0.35-0.37-0.75-0.7-1.1-1.07c-0.18-0.2-0.25-0.47-0.06-0.7c0.24-0.3,0.54-0.23,0.79-0.02
					c0.74,0.65,1.47,1.3,2.18,1.97c0.55,0.53,1.03,1.14,1.95,0.97c0.3-0.06,0.61,0.1,0.63,0.48c0.02,0.47-0.35,0.55-0.7,0.55
					c-1.36,0.01-2.73-0.01-4.09-0.01c-1.23,0-2.45,0-3.86,0c0.88,1.16,1.89,1.98,2.85,2.82c0.27,0.24,0.65,0.14,0.99,0.15
					c1.41,0.03,2.81,0.04,4.22,0.07c0.29,0.01,0.6,0.03,0.88,0.1c0.22,0.06,0.32,0.28,0.29,0.51c-0.02,0.18-0.14,0.34-0.31,0.37
					c-0.38,0.05-0.76,0.08-1.14,0.08c-1.09,0.01-2.18,0-3.59,0c0.82,0.81,1.45,1.4,2.05,2.03c0.33,0.34,0.97,0.69,0.47,1.25
					c-0.52,0.57-0.91-0.06-1.26-0.38c-0.79-0.72-1.57-1.45-2.3-2.22c-0.48-0.5-1-0.74-1.7-0.67c-1.91,0.19-3.83,0.19-5.71,0.18
					c-0.23,0.39,0.08,0.51,0.25,0.66c0.91,0.84,1.84,1.65,2.74,2.5c0.5,0.47,1.04,0.64,1.72,0.65c3.45,0.05,6.9,0.15,10.35,0.24
					c0.34,0.01,0.68,0.02,1.02,0.04c0.28,0.02,0.51,0.15,0.52,0.45c0.02,0.36-0.22,0.53-0.57,0.55c-0.25,0.02-0.51,0.02-0.77,0.02
					c-3.07-0.04-6.14,0.07-9.2-0.1c-0.12-0.01-0.25,0.03-0.46,0.06c0.17,0.56,0.69,0.73,1.01,1.07c0.26,0.29,0.57,0.58,0.19,0.98
					c-0.3,0.32-0.64,0.16-0.92-0.06c-0.67-0.53-1.32-1.07-1.98-1.62c-0.37-0.3-0.74-0.54-1.26-0.54c-2.08,0.01-4.17,0.01-6.27,0.01
					c-0.04,0.5,0.42,0.61,0.66,0.87c0.23,0.25,0.52,0.44,0.74,0.7c0.17,0.2,0.22,0.47,0.05,0.71c-0.22,0.3-0.53,0.29-0.79,0.1
					c-0.57-0.44-1.17-0.87-1.66-1.4c-0.75-0.8-1.6-1.17-2.71-1.06c-0.84,0.08-1.7,0.01-2.56,0.01c-0.42,0-0.83-0.11-0.84-0.58
					c-0.01-0.46,0.4-0.61,0.82-0.62c0.75-0.01,1.49,0,2.24,0c0.03-0.09,0.05-0.18,0.08-0.27c-0.84-0.69-1.75-1.31-2.5-2.08
					c-0.97-1.01-2.07-1.41-3.43-1.21c-0.33,0.05-0.69,0.06-1.02,0c-0.63-0.12-1.75,0.43-1.76-0.59c-0.01-0.91,1.09-0.45,1.7-0.54
					c0.41-0.06,0.84-0.01,1.21-0.01c0.24-0.42-0.08-0.53-0.24-0.68c-0.37-0.35-0.83-0.63-1.15-1.01c-1.14-1.36-2.57-1.81-4.3-1.62
					c-0.8,0.09-1.62,0.01-2.43-0.02c-0.4-0.01-0.82-0.12-0.82-0.61c0.01-0.49,0.42-0.58,0.83-0.58c1.06,0,2.12,0,3.18,0
					C160.63,252.82,160.66,252.74,160.69,252.66z M169.66,258.54c-0.08,0.29-0.03,0.39,0.08,0.48c1.15,0.94,2.31,1.87,3.45,2.81
					c0.28,0.23,0.59,0.31,0.94,0.31c1.99,0.03,3.99,0.06,5.98,0.09c0.13,0,0.23-0.08,0.29-0.33c-1.02-0.93-2.1-1.88-3.13-2.87
					c-0.47-0.45-0.99-0.57-1.61-0.55c-1.61,0.04-3.22,0.04-4.84,0.05C170.42,258.54,170.01,258.54,169.66,258.54z M173.79,254.48
					c0.72,0.88,1.69,1.5,2.54,2.26c0.44,0.39,0.92,0.57,1.5,0.55c1.92-0.04,3.83-0.05,5.75-0.08c0.2,0,0.44,0.03,0.5-0.26
					c-0.71-0.73-1.43-1.45-2.12-2.2c-0.44-0.48-0.92-0.67-1.58-0.65c-1.96,0.06-3.92,0.07-5.88,0.11
					C174.27,254.22,173.99,254.15,173.79,254.48z M164.57,254.19c-0.04,0.09-0.08,0.18-0.13,0.28c1.05,0.9,2.11,1.8,3.16,2.7
					c0.28,0.24,0.63,0.23,0.97,0.23c1.87,0,3.74,0,5.6-0.01c0.23,0,0.53,0.09,0.65-0.31c-0.85-0.78-1.72-1.58-2.59-2.39
					c-0.23-0.21-0.49-0.33-0.8-0.32C169.15,254.42,166.86,254.29,164.57,254.19z"/>
				<path class="st5" d="M216.93,263.13c0.71,0.79,1.34,1.48,1.97,2.18c0.17,0.19,0.36,0.37,0.5,0.58c0.12,0.19,0.12,0.41-0.03,0.59
					c-0.19,0.23-0.44,0.24-0.69,0.1c-0.15-0.08-0.28-0.2-0.4-0.31c-1.04-1.01-2.07-2.02-3.1-3.04c-0.24-0.24-0.53-0.48-0.37-0.87
					c0.16-0.37,0.53-0.43,0.86-0.43c1.02,0,2.04,0.05,3.06,0.08c1.83,0.05,3.66,0.1,5.49,0.16c0.3,0.01,0.59,0.04,0.88,0.1
					c0.23,0.05,0.37,0.22,0.36,0.46c-0.01,0.23-0.17,0.38-0.39,0.45c-0.37,0.12-0.76,0.07-1.14,0.06c-2.04-0.05-4.08-0.1-6.13-0.15
					C217.53,263.07,217.24,263.11,216.93,263.13z"/>
				<path class="st5" d="M211.58,266.21c-0.01,0.37-0.42,0.62-0.75,0.38c-0.76-0.55-1.37-1.26-1.95-1.99
					c-0.14-0.17-0.13-0.4,0.04-0.58c0.17-0.18,0.4-0.23,0.58-0.11c0.79,0.58,1.45,1.29,2.04,2.07
					C211.58,266.03,211.57,266.14,211.58,266.21z"/>
			</g>
			<g>
				<path class="st6" d="M108.41,237.3c5.04,0.08,10.79-0.31,16.53,0.23c1.19,0.11,2.38,0.2,3.54,0.5c0.7,0.18,1.4,0.4,1.97,0.87
					c1.23,1,1.03,2.56-0.42,3.17c-0.79,0.33-1.64,0.47-2.49,0.53c-0.85,0.05-1.7,0.1-2.55,0.09c-3.58-0.04-7.15,0.16-10.7,0.65
					c-3.17,0.44-6.37,0.42-9.57,0.46c-4.6,0.07-9.19,0.36-13.78,0.61c-0.51,0.03-1.03,0.04-1.53-0.01
					c-0.66-0.06-0.96-0.37-0.85-1.01c0.24-1.51,0.07-2.96-0.28-4.43c-0.19-0.77,0.1-1.11,0.92-1.15c3.83-0.18,7.64-0.58,11.48-0.45
					C103.01,237.44,105.36,237.43,108.41,237.3z"/>
				<g>
					<g>
						<path class="st7" d="M112.79,180.53c0.02,1.85-0.48,3.48-1.22,5.03c-0.6,1.27-1.22,2.54-1.96,3.74
							c-1.53,2.51-1.38,4.92,0.21,7.32c0.24,0.35,0.45,0.72,0.65,1.1c0.25,0.48,0.18,0.93-0.29,1.23c-0.47,0.3-0.88,0.13-1.25-0.25
							c-2.36-2.43-3.06-6.28-1.63-9.38c0.75-1.62,1.65-3.18,2.42-4.79c1.27-2.65,1.33-5.34,0.1-8.03c-0.27-0.58-0.52-1.17-0.76-1.76
							c-0.11-0.27-0.22-0.56-0.25-0.85c-0.06-0.47,0.14-0.83,0.58-1.03c0.46-0.21,0.83-0.04,1.15,0.29c0.09,0.09,0.17,0.2,0.22,0.31
							C111.8,175.75,112.95,178.01,112.79,180.53z"/>
						<path class="st7" d="M101.55,191.45c0.02-1.35,0.49-2.89,1.18-4.37c0.49-1.04,1.01-2.07,1.45-3.12
							c0.54-1.3,0.65-2.63,0.18-3.99c-0.07-0.2-0.15-0.41-0.15-0.62c-0.02-0.52,0.2-0.92,0.72-1.08c0.46-0.14,0.85,0.03,1.11,0.42
							c0.34,0.5,0.49,1.08,0.6,1.67c0.27,1.46,0.11,2.89-0.46,4.26c-0.53,1.25-1.15,2.47-1.7,3.71c-1.03,2.31-1.25,4.67-0.28,7.06
							c0.34,0.83,0.72,1.62,1.42,2.23c0.61,0.54,0.67,1,0.33,1.43c-0.37,0.45-0.93,0.44-1.59-0.04c-0.52-0.38-0.93-0.87-1.25-1.43
							C102.07,195.78,101.46,193.85,101.55,191.45z"/>
						<path class="st7" d="M112.46,191.65c-0.03-1.8,0.75-3.3,1.72-4.73c0.77-1.13,1.53-2.25,1.91-3.59
							c0.35-1.25,0.52-2.5,0.14-3.77c-0.08-0.28-0.13-0.58-0.15-0.88c-0.05-0.52,0.12-0.95,0.67-1.08c0.55-0.14,0.93,0.18,1.09,0.66
							c0.3,0.93,0.58,1.87,0.58,2.87c-0.01,1.92-0.52,3.7-1.48,5.36c-0.45,0.77-0.95,1.51-1.44,2.27c-0.77,1.19-1.08,2.5-0.9,3.9
							c0.19,1.48,0.38,2.96,1.17,4.28c0.23,0.38,0.35,0.78,0.17,1.22c-0.28,0.66-1.16,0.77-1.7,0.19c-0.44-0.47-0.7-1.07-0.91-1.67
							C112.75,195.04,112.47,193.36,112.46,191.65z"/>
					</g>
					<g>
						<path class="st8" d="M102.94,238.14c-5.51-0.03-11.26-0.06-17.02-0.1c-0.42,0-0.86-0.01-1.27-0.11
							c-0.7-0.17-1.09-0.73-1.07-1.4c0.02-0.68,0.44-1.17,1.16-1.33c0.21-0.05,0.42-0.05,0.64-0.06c3.79-0.03,7.58-0.35,11.38-0.24
							c5.33,0.14,10.66-0.07,15.99-0.1c4.79-0.02,9.54,0.24,14.27,1.03c1.14,0.19,2.24,0.54,3.26,1.09
							c1.63,0.88,2.87,2.06,2.74,4.09c-0.13,2.1-1.44,3.28-3.3,3.96c-1.01,0.37-2.07,0.49-3.13,0.6c-4.97,0.5-9.96,0.44-14.95,0.46
							c-7.54,0.04-15.09,0.15-22.63,0.23c-0.94,0.01-1.88,0.01-2.81,0.01c-0.3,0-0.6,0-0.89-0.07c-0.71-0.16-1.2-0.77-1.22-1.46
							c-0.02-0.68,0.44-1.35,1.13-1.54c0.32-0.09,0.67-0.08,1.01-0.1c4.99-0.21,9.97-0.15,14.96-0.19
							c6.14-0.05,12.28-0.13,18.42-0.14c2.55-0.01,5.11-0.24,7.65-0.53c0.64-0.07,1.27-0.22,1.83-0.53
							c0.93-0.51,0.97-1.17,0.07-1.73c-1.02-0.65-2.18-0.93-3.37-1.12c-4.69-0.74-9.42-0.86-14.16-0.83
							C108.81,238.06,106,238.1,102.94,238.14z"/>
					</g>
					<path class="st9" d="M110.14,201.51c2.66-0.13,6.03-0.07,9.39-0.02c0.26,0,0.51,0,0.77,0.02c0.86,0.07,0.99,0.19,0.86,1.01
						c-0.57,3.54-0.63,7.13-1.11,10.68c-0.37,2.7-0.71,5.41-1.06,8.11c-0.11,0.89-0.18,1.78-0.31,2.67c-0.19,1.3-0.33,1.42-1.6,1.51
						c-0.55,0.04-1.11,0.03-1.66,0.03c-3.5-0.04-6.99-0.17-10.48-0.38c-1.49-0.09-2.98-0.05-4.47-0.07c-0.3,0-0.6,0.01-0.89-0.03
						c-0.93-0.11-1.21-0.32-1.34-1.25c-0.17-1.26-0.26-2.54-0.33-3.82c-0.08-1.55-0.06-1.52-1.67-1.77
						c-2.13-0.33-4.15-0.97-5.91-2.26c-1.03-0.75-1.78-1.69-2.06-2.98c-0.6-2.73,0.37-4.67,2.93-5.79c1.42-0.62,2.93-0.9,4.43-1.22
						c0.21-0.04,0.42-0.06,0.63-0.11c1.01-0.22,1-0.22,0.98-1.21c-0.01-0.68-0.01-1.36,0.01-2.05c0.03-1.01,0.19-1.15,1.2-1.22
						c0.21-0.01,0.43-0.01,0.64,0C102.53,201.54,105.98,201.49,110.14,201.51z M96.53,214.41c1.06,0.07,1.14,0.04,1.13-0.65
						c-0.04-1.4-0.12-2.81-0.19-4.21c-0.02-0.32-0.13-0.6-0.53-0.56c-1.62,0.15-3.23,0.38-4.62,1.31c-0.79,0.53-0.91,1.43-0.39,2.25
						c0.33,0.52,0.82,0.85,1.38,1.1C94.35,214.14,95.49,214.32,96.53,214.41z"/>
					<g>
						<path class="st6" d="M107.5,232.24c-5.64-0.15-10.08-0.17-14.49-0.59c-1.78-0.17-3.57-0.27-5.32-0.67
							c-0.46-0.11-0.91-0.23-1.32-0.49c-0.83-0.52-0.89-1.44-0.15-2.09c0.51-0.45,1.14-0.59,1.78-0.65
							c1.91-0.19,3.81-0.44,5.73-0.51c5.79-0.21,11.58-0.33,17.37-0.28c4.64,0.04,9.28-0.07,13.92,0.04c0.3,0.01,0.6-0.01,0.89,0
							c0.6,0.03,0.95,0.32,0.92,1c-0.04,1.06-0.03,2.13-0.09,3.19c-0.06,0.9-0.32,1.18-1.18,1.25c-0.98,0.08-1.96,0.12-2.93,0.13
							C117.18,232.64,111.73,232.45,107.5,232.24z"/>
						<path class="st10" d="M86.05,229.67c1.86,0.97,3.58,1.22,5.31,1.38c3.01,0.28,6.04,0.39,9.07,0.45
							c8.48,0.15,16.96,0.25,25.44,0.23c0.85,0,1.7,0.05,2.56,0.08c0.43,0.01,0.85,0.1,1.24,0.29c0.7,0.35,1.07,1.04,1.01,1.84
							c-0.07,0.79-0.48,1.31-1.17,1.6c-0.45,0.18-0.92,0.16-1.39,0.15c-8.52-0.1-17.05-0.19-25.57-0.28
							c-4.14-0.05-8.27-0.11-12.38-0.62c-1.95-0.24-3.87-0.65-5.64-1.59c-1.67-0.89-2.37-2.3-2.09-4.14
							c0.25-1.62,1.26-2.57,2.68-3.1c1.74-0.64,3.57-0.86,5.39-1.03c4.5-0.42,9.02-0.5,13.53-0.71c6.9-0.32,13.8-0.53,20.7-0.07
							c1.11,0.07,2.21,0.15,3.31,0.25c0.38,0.03,0.77,0.09,1.13,0.21c0.72,0.25,1.11,0.87,1.08,1.62c-0.03,0.79-0.52,1.41-1.31,1.57
							c-0.37,0.07-0.76,0.07-1.15,0.06c-7.8-0.26-15.59-0.18-23.39,0.19c-4.34,0.21-8.69,0.3-13.03,0.63
							C89.69,228.81,87.99,229,86.05,229.67z"/>
					</g>
				</g>
			</g>
		</g>
		<g>
			<path class="st11" d="M220.5,217.09c-0.01,3.07-0.01,6.14,0.51,9.18c0.24,1.39,0.58,2.75,1.03,4.08c0.88,2.56,2.28,4.75,4.47,6.4
				c0.51,0.38,0.98,0.82,1.45,1.25c0.48,0.45,0.79,1,0.91,1.65c0.22,1.2-0.46,2.23-1.66,2.47c-0.42,0.08-0.85,0.14-1.27,0.14
				c-4.68,0.01-9.35,0.66-14.05,0.19c-1.44-0.15-2.49-0.69-3.27-1.9c-1.59-2.46-2.54-5.09-2.5-8.05c0.08-5.26,0.87-10.43,1.97-15.56
				c0.38-1.79,0.78-3.58,1.2-5.36c0.27-1.16,0.3-1.19,1.42-1.22c2.85-0.08,5.7-0.13,8.55-0.17c1.03-0.01,1.2,0.12,1.23,1.16
				C220.53,213.25,220.5,215.17,220.5,217.09z"/>
			<g>
				<path class="st11" d="M206.38,123.38c9.21-0.11,18.42,0.01,27.63,0.24c3.67,0.09,7.33,0.03,11,0.12
					c5.12,0.13,10.23,0.29,15.35,0.08c2.43-0.1,4.84-0.43,7.27-0.42c4.65,0.03,9.28,0.44,13.89,1.04c2.59,0.34,4.51,1.73,5.21,4.43
					c0.23,0.87,0.44,1.73,0.54,2.62c0.49,4.12,0.53,8.23,0.31,12.38c-0.22,4.17-0.18,8.35-0.18,12.53
					c-0.01,7.85,0.08,15.69,0.02,23.54c-0.03,4.35-0.33,8.69-0.45,13.03c-0.12,4.18-0.4,8.34-0.72,12.51
					c-0.2,2.56-1.53,4.16-3.82,5.1c-1.56,0.64-3.2,0.89-4.86,1.03c-4.46,0.38-8.94,0.52-13.42,0.35
					c-7.63-0.28-15.26-0.35-22.89-0.28c-6.69,0.06-13.39,0.11-20.08,0.32c-11.59,0.37-23.19,0.45-34.79,0.46
					c-7.59,0.01-15.18,0.09-22.77,0.06c-4.05-0.01-8.1,0.07-12.15-0.12c-2.42-0.11-4.72-0.64-6.86-1.81
					c-1.55-0.85-2.69-2.04-3.42-3.67c-1.13-2.54-1.55-5.2-1.62-7.96c-0.22-9,0.2-17.99,0.26-26.98c0.04-6.27,0.42-12.53,0.25-18.8
					c-0.11-4.14-0.25-8.27,0.02-12.4c0.17-2.6,0.23-5.19,0.38-7.79c0.08-1.38,0.41-2.71,0.96-3.96c1.2-2.73,3.32-4.38,6.26-4.91
					c1.76-0.32,3.56-0.38,5.35-0.45c10.91-0.4,21.82-0.39,32.74-0.29C192.65,123.43,199.52,123.38,206.38,123.38z"/>
				<path class="st6" d="M277.37,138.59c0.03-1.23,0.01-2.47-0.07-3.71c-0.07-1.17-0.49-1.57-1.65-1.74
					c-0.21-0.03-0.42-0.03-0.64-0.04c-3.96-0.08-7.93-0.16-11.89-0.25c-9.25-0.22-18.5,0.22-27.75,0.23c-7.55,0.01-15.09,0-22.64,0
					c0-0.05,0-0.11,0-0.16c-2.22,0-4.44,0.06-6.65-0.01c-4.82-0.15-9.63-0.28-14.45-0.23c-13.18,0.13-26.35,0.05-39.52-0.54
					c-0.85-0.04-1.71-0.05-2.55,0.07c-1.18,0.18-1.81,0.74-1.78,1.94c0.07,2.61-0.37,5.19-0.33,7.79c0.04,3.2,0.14,6.39-0.21,9.58
					c-0.36,3.27-0.03,6.56-0.18,9.84c-0.23,5.07-0.2,10.15,0,15.22c0.28,7.07,0.56,14.14,0.59,21.22c0.01,1.36,0.07,2.73,0.1,4.09
					c0.02,0.85,0.43,1.45,1.17,1.84c0.76,0.4,1.57,0.64,2.43,0.76c1.02,0.14,2.03,0.22,3.06,0.22c5.71,0,11.43-0.01,17.14,0.01
					c7.33,0.02,14.66,0.5,21.99,0.42c9-0.1,17.99,0.11,26.99-0.17c8.57-0.27,17.14-0.29,25.71-0.27c8.87,0.03,17.74,0.2,26.6,0.28
					c3.21,0.03,3.97-0.77,4.02-4.02c0.02-1.28,0.01-2.56,0.05-3.84c0.12-4.69,0.42-9.37,0.25-14.06c-0.32-8.95-0.64-17.9-0.35-26.85
					C277,150.36,277.23,144.48,277.37,138.59z"/>
				<path class="st5" d="M216.09,125.38c1.55-0.03,2.61,0.96,2.64,2.46c0.02,1.43-0.86,2.42-2.17,2.45
					c-1.64,0.04-2.93-1.07-2.94-2.52C213.62,126.49,214.74,125.41,216.09,125.38z"/>
				<path class="st12" d="M199.06,187.42c4.73,0,9.46,0,14.19,0c0.47,0,0.94-0.04,1.4,0.1c0.7,0.21,1.13,0.73,1.12,1.38
					c0,0.64-0.43,1.18-1.14,1.36c-0.32,0.08-0.67,0.1-1.01,0.1c-9.67,0.02-19.35,0.03-29.02,0.04c-0.38,0-0.77,0.01-1.13-0.14
					c-0.62-0.26-0.95-0.75-0.92-1.39c0.03-0.63,0.41-1.13,1.06-1.28c0.41-0.09,0.85-0.09,1.27-0.09c4.73-0.01,9.46,0,14.19,0
					C199.06,187.48,199.06,187.45,199.06,187.42z"/>
				<path class="st12" d="M203.15,171.93c-4.86,0-9.72,0-14.58,0c-0.51,0-1.03,0.05-1.52-0.15c-0.63-0.25-0.96-0.74-0.93-1.38
					c0.03-0.62,0.36-1.03,0.93-1.25c0.41-0.16,0.83-0.16,1.26-0.17c9.94-0.07,19.87-0.13,29.81-0.2c0.43,0,0.86-0.01,1.27,0.13
					c0.62,0.21,1.01,0.73,1.01,1.33c0,0.61-0.37,1.1-1.01,1.34c-0.45,0.17-0.93,0.13-1.39,0.13c-4.95,0-9.89,0-14.84,0
					C203.15,171.78,203.15,171.86,203.15,171.93z"/>
				<path class="st8" d="M190.1,166.08c-4.56,0-9.12,0-13.68,0c-0.42,0-0.86,0.01-1.27-0.08c-0.71-0.16-1.1-0.7-1.09-1.38
					c0.01-0.69,0.4-1.19,1.13-1.34c0.41-0.09,0.85-0.1,1.27-0.1c9.16-0.03,18.33-0.06,27.49-0.09c0.42,0,0.85-0.03,1.26,0.13
					c0.63,0.24,0.99,0.73,0.98,1.35c-0.01,0.62-0.38,1.12-1.02,1.32c-0.45,0.15-0.93,0.13-1.39,0.13c-4.56,0-9.12,0-13.68,0
					C190.1,166.03,190.1,166.05,190.1,166.08z"/>
				<path class="st13" d="M200.59,160.82c-4.39,0-8.78,0-13.18,0c-0.34,0-0.69,0.01-1.02-0.06c-0.7-0.13-1.15-0.66-1.18-1.32
					c-0.02-0.65,0.39-1.23,1.08-1.41c0.32-0.09,0.67-0.09,1.01-0.1c8.78-0.1,17.57-0.19,26.35-0.28c0.34,0,0.69-0.01,1.02,0.05
					c0.75,0.15,1.19,0.75,1.16,1.46c-0.03,0.67-0.47,1.17-1.18,1.31c-0.29,0.06-0.59,0.05-0.89,0.05c-4.39,0.07-8.78,0.13-13.18,0.2
					C200.59,160.76,200.59,160.79,200.59,160.82z"/>
				<path class="st13" d="M188.65,141.6c-4,0-8.01,0-12.01,0c-0.43,0-0.86,0.01-1.27-0.06c-0.7-0.11-1.16-0.65-1.2-1.3
					c-0.04-0.63,0.39-1.25,1.05-1.43c0.32-0.09,0.67-0.09,1.01-0.09c8.39,0.01,16.78,0.03,25.17,0.05c0.43,0,0.85,0,1.25,0.18
					c0.57,0.24,0.87,0.66,0.88,1.28c0.01,0.63-0.35,1.11-0.98,1.35c-0.49,0.18-1.01,0.14-1.52,0.14c-4.13,0-8.26,0-12.39,0
					C188.65,141.69,188.65,141.64,188.65,141.6z"/>
				<path class="st13" d="M188.94,185.24c-3.87,0-7.75,0-11.62,0c-0.47,0-0.94,0.03-1.39-0.14c-0.63-0.24-1.01-0.73-1.01-1.33
					c0-0.6,0.37-1.1,1-1.34c0.37-0.14,0.75-0.14,1.13-0.14c7.96-0.01,15.92-0.03,23.88-0.04c0.38,0,0.77-0.01,1.13,0.14
					c0.62,0.26,0.97,0.76,0.94,1.38c-0.02,0.61-0.42,1.13-1.06,1.28c-0.41,0.1-0.84,0.11-1.27,0.11c-3.92,0.01-7.83,0-11.75,0
					C188.94,185.18,188.94,185.21,188.94,185.24z"/>
				<path class="st13" d="M236.16,147.94c-3.87,0.07-7.75,0.14-11.62,0.2c-0.47,0.01-0.94,0.06-1.39-0.1
					c-0.69-0.23-1.12-0.77-1.06-1.42c0.06-0.65,0.41-1.1,1.05-1.3c0.42-0.13,0.84-0.13,1.26-0.13c7.92-0.1,15.84-0.2,23.75-0.3
					c0.42-0.01,0.85-0.05,1.26,0.1c0.68,0.25,1.04,0.78,0.99,1.47c-0.05,0.63-0.43,1.09-1.1,1.24c-0.41,0.09-0.85,0.11-1.27,0.11
					c-3.96,0.01-7.92,0-11.88,0C236.16,147.85,236.16,147.9,236.16,147.94z"/>
				<path class="st8" d="M215.01,196.24c-3.45,0-6.9,0-10.34,0c-0.38,0-0.77,0.02-1.15-0.01c-1.03-0.09-1.6-0.64-1.6-1.47
					c0.01-0.83,0.58-1.35,1.62-1.46c0.21-0.02,0.43-0.01,0.64-0.02c7.32-0.06,14.64-0.11,21.97-0.16c0.34,0,0.69,0,1.02,0.07
					c0.71,0.15,1.15,0.67,1.17,1.32c0.02,0.65-0.38,1.22-1.08,1.4c-0.4,0.1-0.84,0.11-1.26,0.11c-3.66,0.01-7.32,0-10.98,0
					C215.01,196.1,215.01,196.17,215.01,196.24z"/>
				<path class="st8" d="M206.54,148.52c-3.57,0-7.15,0-10.72,0c-0.34,0-0.69,0.01-1.02-0.05c-0.69-0.13-1.15-0.67-1.17-1.32
					c-0.02-0.59,0.36-1.12,0.96-1.37c0.37-0.15,0.75-0.14,1.13-0.14c7.27-0.12,14.55-0.23,21.82-0.34c0.25,0,0.51-0.01,0.76,0.03
					c0.77,0.12,1.27,0.65,1.3,1.34c0.03,0.68-0.44,1.27-1.2,1.44c-0.33,0.07-0.68,0.07-1.01,0.08c-3.62,0.06-7.23,0.12-10.85,0.18
					C206.54,148.42,206.54,148.47,206.54,148.52z"/>
				<path class="st12" d="M215.84,154.81c-3.45,0.07-6.9,0.14-10.35,0.21c-0.51,0.01-1.02,0.05-1.52-0.13
					c-0.57-0.22-0.9-0.63-0.95-1.24c-0.05-0.61,0.31-1.13,0.92-1.39c0.4-0.17,0.83-0.17,1.26-0.17c7.03-0.11,14.06-0.22,21.09-0.33
					c0.43-0.01,0.86-0.02,1.27,0.05c0.74,0.13,1.23,0.74,1.21,1.43c-0.02,0.64-0.48,1.19-1.17,1.33c-0.33,0.07-0.68,0.06-1.02,0.07
					c-3.58,0.07-7.16,0.14-10.73,0.21C215.84,154.83,215.84,154.82,215.84,154.81z"/>
				<path class="st12" d="M187.42,196.34c-3.45,0-6.9,0-10.35,0c-0.38,0-0.77,0.01-1.15-0.05c-0.74-0.13-1.25-0.73-1.24-1.41
					c0.01-0.68,0.52-1.25,1.28-1.38c0.29-0.05,0.59-0.04,0.89-0.04c7.03,0,14.05-0.01,21.08,0c0.34,0,0.69-0.01,1.02,0.06
					c0.69,0.14,1.15,0.7,1.17,1.34c0.02,0.68-0.47,1.3-1.21,1.43c-0.37,0.07-0.76,0.05-1.15,0.05
					C194.32,196.34,190.87,196.34,187.42,196.34z"/>
				<path class="st12" d="M217.84,138.79c2.98,0,5.96,0,8.94,0c0.47,0,0.94-0.04,1.39,0.13c0.65,0.23,1,0.68,1.01,1.32
					c0.01,0.64-0.32,1.1-0.96,1.35c-0.41,0.16-0.83,0.15-1.26,0.15c-6.09,0.02-12.18,0.04-18.27,0.06c-0.34,0-0.69,0.01-1.02-0.07
					c-0.74-0.17-1.18-0.77-1.13-1.49c0.04-0.68,0.47-1.16,1.21-1.27c0.46-0.07,0.93-0.06,1.4-0.06c2.9,0,5.79,0,8.69,0
					C217.84,138.87,217.84,138.83,217.84,138.79z"/>
				<path class="st12" d="M185.93,178.98c-2.86,0-5.71,0-8.56,0c-0.42,0-0.86,0-1.27-0.08c-0.64-0.12-1.05-0.64-1.1-1.24
					c-0.05-0.6,0.31-1.15,0.9-1.41c0.41-0.18,0.83-0.15,1.26-0.15c5.84-0.01,11.68-0.02,17.51-0.02c0.34,0,0.69-0.01,1.02,0.06
					c0.74,0.15,1.21,0.78,1.17,1.46c-0.04,0.64-0.51,1.18-1.2,1.3c-0.37,0.07-0.76,0.06-1.15,0.06c-2.86,0-5.71,0-8.57,0
					C185.93,178.96,185.93,178.97,185.93,178.98z"/>
				<path class="st8" d="M231.85,171.9c-2.04,0-4.08,0-6.12,0c-0.38,0-0.77,0.02-1.14-0.05c-0.78-0.14-1.27-0.68-1.3-1.35
					c-0.03-0.72,0.48-1.31,1.32-1.48c0.25-0.05,0.51-0.05,0.76-0.05c4.38-0.06,8.76-0.12,13.14-0.17c0.34,0,0.69,0.02,1.01,0.11
					c0.63,0.16,1.03,0.69,1.06,1.29c0.03,0.6-0.34,1.12-0.95,1.37c-0.41,0.17-0.83,0.15-1.26,0.15c-2.17,0-4.34,0-6.51,0
					C231.85,171.77,231.85,171.84,231.85,171.9z"/>
				<path class="st12" d="M182.7,148.61c-2.09,0-4.17,0-6.26,0c-0.47,0-0.94,0.02-1.39-0.15c-0.57-0.21-0.9-0.63-0.95-1.24
					c-0.05-0.62,0.31-1.13,0.92-1.38c0.36-0.15,0.75-0.15,1.13-0.16c4.34-0.02,8.68-0.05,13.02-0.06c0.3,0,0.6-0.01,0.89,0.05
					c0.75,0.15,1.21,0.73,1.18,1.44c-0.02,0.66-0.46,1.19-1.16,1.33c-0.37,0.07-0.76,0.06-1.14,0.06c-2.09,0.01-4.17,0-6.26,0
					C182.7,148.53,182.7,148.57,182.7,148.61z"/>
				<path class="st12" d="M191.7,155.15c-1.83,0-3.65,0-5.48,0c-0.3,0-0.6,0.01-0.89,0c-1.02-0.06-1.63-0.6-1.62-1.42
					c0.01-0.8,0.63-1.41,1.63-1.43c4.29-0.09,8.58-0.15,12.87-0.21c0.25,0,0.51,0.04,0.75,0.12c0.64,0.21,0.99,0.71,0.99,1.33
					c0,0.62-0.36,1.15-1,1.32c-0.45,0.12-0.92,0.15-1.39,0.16c-1.95,0.02-3.91,0.01-5.86,0.01
					C191.7,155.06,191.7,155.11,191.7,155.15z"/>
				<path class="st12" d="M224.59,157.35c1.74,0,3.49,0,5.23,0c1.31,0,2,0.51,1.98,1.45c-0.02,0.87-0.7,1.4-1.91,1.44
					c-3.49,0.1-6.97,0.18-10.46,0.27c-0.34,0.01-0.69,0.01-1.02-0.05c-0.69-0.14-1.13-0.69-1.14-1.35c-0.02-0.66,0.4-1.22,1.07-1.4
					c0.24-0.07,0.5-0.08,0.76-0.08c1.83-0.01,3.66,0,5.48,0C224.59,157.53,224.59,157.44,224.59,157.35z"/>
				<path class="st13" d="M224.73,190.39c-1.57,0-3.15,0-4.72,0c-0.38,0-0.76,0.01-1.13-0.16c-0.59-0.28-0.92-0.81-0.84-1.43
					c0.07-0.61,0.41-1.03,1-1.19c0.37-0.1,0.76-0.12,1.14-0.13c3.11-0.06,6.21-0.13,9.32-0.17c1.33-0.02,1.99,0.5,1.97,1.44
					c-0.02,0.93-0.68,1.42-2.02,1.43c-1.57,0.02-3.15,0-4.72,0C224.73,190.26,224.73,190.33,224.73,190.39z"/>
				<path class="st8" d="M239.13,187.34c1.23,0,2.47,0,3.7,0c0.34,0,0.69,0,1.01,0.07c0.76,0.17,1.19,0.75,1.16,1.46
					c-0.03,0.72-0.51,1.22-1.31,1.32c-0.34,0.04-0.68,0.02-1.02,0.02c-2.42-0.03-4.85-0.07-7.27-0.1c-0.43-0.01-0.85-0.01-1.26-0.16
					c-0.63-0.23-0.97-0.67-0.97-1.35c0-0.65,0.34-1.09,0.99-1.33c0.37-0.13,0.75-0.12,1.13-0.12c1.27,0,2.55,0,3.82,0
					C239.13,187.22,239.13,187.28,239.13,187.34z"/>
				<path class="st5" d="M168.41,139.8c-0.04,1.16-1.01,2.05-2.18,2.01c-1.16-0.04-2.07-1.01-2.03-2.16
					c0.04-1.16,1.01-2.05,2.18-2.01C167.55,137.67,168.45,138.64,168.41,139.8z"/>
				<path class="st5" d="M168.59,152.85c0.02,1.14-0.94,2.11-2.09,2.13c-1.14,0.02-2.13-0.94-2.15-2.07
					c-0.02-1.13,0.94-2.11,2.09-2.13C167.6,150.76,168.57,151.7,168.59,152.85z"/>
				<path class="st5" d="M166.31,160.64c-1.15-0.02-2.08-0.98-2.07-2.14c0.02-1.16,0.97-2.1,2.12-2.08
					c1.16,0.02,2.08,0.97,2.07,2.14C168.42,159.71,167.46,160.65,166.31,160.64z"/>
				<path class="st5" d="M166.54,168.45c1.15,0.02,2.08,0.99,2.06,2.15c-0.02,1.16-0.98,2.1-2.13,2.08c-1.14-0.02-2.08-1-2.06-2.16
					C164.43,169.37,165.39,168.43,166.54,168.45z"/>
				<path class="st5" d="M166.48,162.61c1.15,0.02,2.09,0.99,2.07,2.14c-0.02,1.15-0.99,2.1-2.13,2.09
					c-1.14-0.02-2.09-0.99-2.08-2.14C164.36,163.55,165.33,162.59,166.48,162.61z"/>
				<path class="st5" d="M168.6,195.2c-0.04,1.16-1.02,2.08-2.17,2.03c-1.15-0.05-2.05-1.03-2.01-2.19
					c0.04-1.16,1.02-2.08,2.17-2.03C167.74,193.06,168.64,194.03,168.6,195.2z"/>
				<path class="st5" d="M166.21,190.72c-1.17-0.03-2.06-0.97-2.03-2.15c0.03-1.17,0.98-2.06,2.15-2.03
					c1.16,0.03,2.06,0.99,2.03,2.15C168.33,189.86,167.38,190.75,166.21,190.72z"/>
				<path class="st5" d="M166.41,174.55c1.17,0,2.1,0.92,2.1,2.09c0,1.17-0.91,2.1-2.08,2.1c-1.17,0-2.1-0.91-2.1-2.08
					C164.33,175.48,165.25,174.55,166.41,174.55z"/>
				<path class="st5" d="M164.24,182.87c0.06-1.16,1.04-2.03,2.21-1.97c1.16,0.06,2.03,1.04,1.97,2.21
					c-0.06,1.16-1.04,2.03-2.21,1.96C165.04,185.02,164.17,184.05,164.24,182.87z"/>
				<path class="st5" d="M168.1,146.83c-0.01,1.01-0.88,1.86-1.88,1.83c-1.01-0.03-1.84-0.92-1.8-1.92
					c0.04-0.96,0.86-1.76,1.82-1.77C167.24,144.97,168.1,145.82,168.1,146.83z"/>
			</g>
		</g>
	</g>
	<g>
		<path class="st14" d="M226.81,108.19c0.58-1.18-0.23-1.68-1.25-2.2c-0.65-0.33-1.13-0.43-1.69,0.09c-0.21,0.2-0.51,0.33-0.79,0.42
			c-0.46,0.14-0.87,0.03-1.14-0.4c-0.51-0.83-1.02-1.65-1.48-2.5c-0.51-0.96-0.32-1.45,0.67-1.91c0.12-0.06,0.24-0.12,0.37-0.15
			c0.53-0.13,0.65-0.44,0.54-0.96c-0.25-1.25-0.23-1.26-1.48-1.53c-1.06-0.23-1.37-0.65-1.22-1.69c0.13-0.89,0.28-1.78,0.62-2.63
			c0.37-0.92,0.74-1.11,1.71-0.9c0.16,0.03,0.33,0.07,0.48,0.13c0.44,0.2,0.66-0.05,0.9-0.37c0.24-0.33,0.21-0.6-0.06-0.88
			c-0.14-0.14-0.25-0.31-0.37-0.47c-0.63-0.85-0.56-1.33,0.26-1.94c0.75-0.56,1.5-1.12,2.26-1.67c1.08-0.78,1.59-0.65,2.2,0.52
			c0.15,0.29,0.15,0.76,0.73,0.61c0.77-0.2,0.98-0.36,1.04-0.98c0.17-1.69,0.52-2.01,2.2-1.96c0.5,0.02,1,0.09,1.49,0.2
			c0.81,0.17,1.12,0.6,1.09,1.43c-0.01,0.17-0.06,0.33-0.06,0.5c-0.02,0.45-0.36,0.99,0.03,1.34c0.49,0.44,1.13,0.7,1.77,0.91
			c0.26,0.09,0.43-0.12,0.6-0.28c0.29-0.27,0.57-0.57,0.89-0.8c0.82-0.6,1.59-0.5,2.17,0.31c0.46,0.65,0.87,1.35,1.28,2.03
			c0.38,0.63,0.28,1.21-0.19,1.75c-0.13,0.15-0.25,0.33-0.41,0.44c-0.83,0.54-0.75,1.32-0.63,2.14c0.05,0.34,0.2,0.45,0.51,0.48
			c0.4,0.03,0.8,0.09,1.19,0.15c0.93,0.15,1.33,0.56,1.27,1.47c-0.07,1-0.22,1.99-0.41,2.98c-0.14,0.69-0.54,0.93-1.26,0.85
			c-0.46-0.05-0.92-0.17-1.37-0.3c-0.35-0.11-0.54-0.02-0.73,0.29c-0.67,1.11-0.69,1.1,0.14,2.12c0.13,0.16,0.26,0.31,0.38,0.47
			c0.5,0.7,0.46,1.22-0.21,1.73c-0.74,0.57-1.49,1.14-2.31,1.6c-0.72,0.4-1.11,0.34-1.69-0.26c-0.16-0.17-0.31-0.35-0.45-0.54
			c-0.79-1-1.07-1.08-2.28-0.73c-0.28,0.08-0.36,0.24-0.4,0.5c-0.07,0.5-0.13,0.99-0.24,1.48c-0.15,0.7-0.48,1.01-1.18,0.99
			c-0.93-0.03-1.87-0.12-2.75-0.49C226.98,109.33,226.77,108.97,226.81,108.19z M231,93.61c-2.52,0-3.74,0.91-4.4,3.23
			c-0.09,0.32-0.17,0.65-0.22,0.98c-0.29,1.87,0.98,3.91,2.85,4.59c1.68,0.61,4.15-0.2,5.07-1.67c0.65-1.05,0.93-2.21,1.04-3.42
			c0.1-1.1-0.34-1.96-1.16-2.64C233.23,93.89,232.13,93.57,231,93.61z"/>
		<g>
			<g>
				<path class="st14" d="M67.17,148.36c1.78,1.77,2.3,3.93,2.49,6.23c0.12,1.4,0.3,2.79,0.46,4.19c0.04,0.34,0.12,0.67,0.22,1
					c0.43,1.36,0.87,1.69,2.29,1.77c0.34,0.02,0.69,0,1.02,0.06c0.59,0.12,0.93,0.56,0.87,1.09c-0.06,0.54-0.38,0.87-0.91,0.91
					c-2.49,0.18-4.13-0.3-5.09-2.65c-0.44-1.08-0.56-2.22-0.7-3.36c-0.12-1.06-0.2-2.12-0.3-3.18c-0.1-1.02-0.3-2.02-0.71-2.97
					c-0.34-0.79-0.82-1.38-1.72-1.55c-0.21-0.04-0.41-0.11-0.61-0.19c-0.45-0.2-0.79-0.51-0.8-1.05c-0.01-0.48,0.24-0.8,0.64-1.02
					c0.04-0.02,0.07-0.05,0.11-0.07c2.2-0.82,2.81-2.49,2.65-4.68c-0.11-1.48-0.1-2.98-0.11-4.47c0-1.37,0.18-2.72,0.8-3.97
					c0.64-1.31,1.7-1.98,3.14-2.05c0.73-0.04,1.2,0.28,1.23,0.82c0.04,0.63-0.36,0.97-0.92,1.01c-1.41,0.1-1.83,1.08-2.05,2.23
					c-0.16,0.84-0.17,1.69-0.14,2.55c0.05,1.4,0.11,2.81,0.13,4.21C69.2,145.18,69.01,147.07,67.17,148.36z"/>
				<path class="st14" d="M89.06,138.82c0.02,1.7,0.09,3.4,0.23,5.1c0.09,1.1,0.35,2.02,1.62,2.26c0.49,0.09,0.86,0.41,0.92,0.94
					c0.07,0.58-0.24,1.05-0.74,1.22c-0.97,0.33-1.1,1.1-1.16,1.93c-0.12,1.62,0.1,3.23,0.26,4.84c0.13,1.32,0.24,2.63,0.16,3.95
					c-0.12,2.08-1.17,3.29-3.21,3.72c-0.46,0.1-0.92,0.19-1.38,0.23c-0.68,0.06-1.16-0.27-1.28-0.8c-0.12-0.54,0.19-1,0.86-1.22
					c0.32-0.1,0.66-0.15,1-0.21c1.55-0.29,1.94-0.72,1.94-2.32c0-0.98-0.09-1.95-0.16-2.93c-0.11-1.49-0.33-2.96-0.32-4.46
					c0.01-1.07,0.07-2.14,0.56-3.11c0.18-0.36,0.15-0.62-0.11-0.91c-0.75-0.84-0.92-1.88-1.04-2.95c-0.22-2.04-0.22-4.08-0.14-6.12
					c0.04-1.02,0.05-2.05-0.08-3.06c-0.17-1.35-0.61-1.72-1.99-1.79c-0.8-0.04-1.19-0.29-1.23-0.81c-0.05-0.56,0.38-0.95,1.19-1.07
					c1.51-0.22,2.79,0.43,3.5,1.79c0.36,0.69,0.57,1.43,0.59,2.2C89.09,136.44,89.06,137.63,89.06,138.82z"/>
			</g>
		</g>
		<g>
			<g>
				<path class="st14" d="M64.15,106.21c0,1.58,0,3.15,0,4.73c0,0.3,0.02,0.6-0.01,0.89c-0.05,0.53-0.36,0.86-0.88,0.94
					c-0.5,0.08-0.98-0.27-1.11-0.85c-0.08-0.37-0.08-0.76-0.08-1.14c-0.01-0.98-0.02-1.96,0.01-2.94c0.02-0.56-0.21-0.79-0.76-0.74
					c-0.08,0.01-0.17,0.01-0.26,0.01c-2.55-0.01-2.55-0.01-2.51,2.53c0.01,0.68,0.01,1.36-0.02,2.04c-0.02,0.58-0.32,0.97-0.92,1.04
					c-0.55,0.07-0.99-0.33-1.12-1c-0.05-0.25-0.04-0.51-0.04-0.76c0-3.07,0-6.13,0.01-9.2c0-0.38,0.01-0.77,0.07-1.15
					c0.07-0.5,0.33-0.88,0.89-0.93c0.49-0.04,0.87,0.34,0.97,0.99c0.05,0.29,0.03,0.59,0.03,0.89c0.01,1.02,0.03,2.04,0.02,3.07
					c-0.01,0.56,0.19,0.74,0.77,0.65c0.71-0.1,1.44-0.12,2.16-0.13c0.54-0.01,0.75-0.25,0.76-0.78c0.02-0.98,0.07-1.96,0.1-2.94
					c0.01-0.34,0.01-0.68,0.04-1.02c0.05-0.53,0.3-0.89,0.87-0.93c0.52-0.04,0.93,0.31,0.96,0.97c0.05,1.45,0.01,2.89,0.01,4.34
					c0,0.47,0,0.94,0,1.41C64.13,106.21,64.14,106.21,64.15,106.21z"/>
				<path class="st14" d="M69.19,102.54c0-0.85-0.07-1.71,0.01-2.55c0.23-2.43,2.44-3.56,4.57-2.37c2.59,1.45,3.45,5.1,1.75,7.55
					c-0.75,1.08-1.85,1.58-3.1,1.84c-0.92,0.19-0.93,0.2-0.87,1.15c0.06,0.98,0.14,1.95,0.2,2.93c0.02,0.29,0.02,0.6-0.03,0.89
					c-0.07,0.36-0.31,0.6-0.69,0.66c-0.43,0.07-0.75-0.09-0.96-0.47c-0.21-0.39-0.22-0.82-0.25-1.24
					C69.65,108.14,69.23,105.35,69.19,102.54z M71.3,102.24C71.3,102.24,71.31,102.24,71.3,102.24c0.01,0.64-0.02,1.28,0.01,1.91
					c0.04,0.79,0.21,0.9,0.92,0.76c1.25-0.26,2-1.17,2.08-2.55c0.07-1.2-0.81-2.68-1.79-3c-0.65-0.21-1.12,0.02-1.21,0.71
					C71.24,100.79,71.3,101.52,71.3,102.24z"/>
				<path class="st14" d="M52.68,103.81c0.03,1.85-0.51,3.35-2.01,4.4c-0.46,0.32-0.96,0.6-1.52,0.61
					c-0.82,0.01-0.97,0.45-0.94,1.16c0.04,0.89,0,1.79-0.02,2.68c-0.01,0.34-0.05,0.68-0.12,1.01c-0.1,0.47-0.39,0.76-0.89,0.75
					c-0.51-0.01-0.77-0.34-0.87-0.79c-0.06-0.24-0.06-0.51-0.06-0.76c-0.01-3.32-0.02-6.65-0.03-9.97c0-0.82,0.1-1.62,0.27-2.41
					c0.24-1.17,0.98-1.76,2.18-1.73c1.61,0.04,2.71,0.89,3.43,2.28C52.54,101.93,52.7,102.89,52.68,103.81z M48.24,104.22
					c0,0.59-0.01,1.18,0,1.78c0.02,0.75,0.28,0.95,0.9,0.66c1.1-0.52,1.44-1.47,1.44-2.61c0-1.22-0.13-2.39-1.37-3.05
					c-0.46-0.24-0.68-0.06-0.76,0.44C48.29,102.36,48.31,103.29,48.24,104.22z"/>
			</g>
		</g>
		<g>
			<g>
				<path class="st14" d="M288.08,110.09c-0.61,0.03-1.03-0.39-1.03-1.04c0-0.4,0.2-0.74,0.38-1.07c3.15-5.9,6.04-11.93,9.07-17.89
					c0.15-0.3,0.31-0.62,0.52-0.88c0.26-0.32,0.62-0.46,1.03-0.26c0.44,0.21,0.64,0.58,0.52,1.05c-0.08,0.33-0.23,0.64-0.38,0.95
					c-2.8,6.02-5.7,12-8.82,17.87C288.82,109.84,288.6,110.06,288.08,110.09z"/>
				<path class="st14" d="M277.78,100.32c0.44,0.61,0.96,0.82,1.44,1.09c1.54,0.9,3.17,1.64,4.82,2.33
					c0.39,0.16,0.78,0.35,1.11,0.61c0.36,0.28,0.49,0.69,0.28,1.14c-0.2,0.44-0.57,0.62-1.04,0.59c-0.21-0.02-0.42-0.08-0.61-0.16
					c-2.24-0.93-4.46-1.9-6.51-3.22c-0.46-0.3-0.91-0.63-1.29-1.03c-0.77-0.79-0.78-1.55-0.09-2.38c0.24-0.29,0.53-0.56,0.81-0.81
					c2.24-2.02,4.49-4.04,6.74-6.05c0.25-0.23,0.52-0.44,0.81-0.62c0.37-0.22,0.74-0.18,1.05,0.12c0.36,0.35,0.38,0.77,0.12,1.16
					c-0.21,0.31-0.51,0.57-0.79,0.83c-1.96,1.83-3.92,3.66-5.88,5.48C278.45,99.69,278.15,99.98,277.78,100.32z"/>
				<path class="st14" d="M302.96,91.9c0.33,0,0.57,0.17,0.78,0.39c1.98,2.01,4.27,3.66,6.37,5.53c0.35,0.31,0.7,0.63,0.99,1
					c0.68,0.85,0.67,1.48-0.15,2.24c-0.94,0.87-1.92,1.69-2.92,2.49c-1.4,1.12-2.82,2.21-4.24,3.3c-0.89,0.68-1.46,0.72-1.9,0.16
					c-0.42-0.54-0.24-1.12,0.62-1.81c1.8-1.44,3.61-2.86,5.41-4.29c0.3-0.24,0.58-0.51,0.87-0.75c0.31-0.26,0.27-0.49-0.01-0.74
					c-0.74-0.65-1.47-1.3-2.21-1.95c-1.29-1.12-2.6-2.21-3.78-3.44c-0.27-0.27-0.56-0.53-0.69-0.91
					C301.88,92.49,302.31,91.87,302.96,91.9z"/>
			</g>
		</g>
		<g>
			<g>
				<path class="st14" d="M259.06,67.28c-0.81-0.03-1.62-0.07-2.39-0.34c-0.68-0.23-0.99-0.68-0.89-1.21
					c0.11-0.58,0.65-0.94,1.38-0.8c0.76,0.15,1.51,0.26,2.28,0.21c0.34-0.02,0.68-0.06,1-0.17c0.97-0.34,1.23-0.98,0.77-1.9
					c-0.23-0.46-0.57-0.84-0.94-1.2c-0.76-0.76-1.67-1.32-2.51-1.96c-1.2-0.91-2.06-2.01-2.01-3.63c0.03-1.09,0.45-1.99,1.28-2.67
					c0.98-0.81,2.13-1.24,3.4-1.31c0.91-0.05,1.42,0.28,1.46,0.87c0.03,0.55-0.32,0.85-1.23,0.99c-0.68,0.1-1.33,0.27-1.92,0.64
					c-1.12,0.69-1.31,1.84-0.42,2.8c0.34,0.37,0.76,0.68,1.18,0.96c0.82,0.55,1.57,1.16,2.28,1.84c0.46,0.44,0.87,0.93,1.19,1.49
					c1.28,2.2,0.43,4.38-2.01,5.14C260.33,67.24,259.69,67.25,259.06,67.28z"/>
				<path class="st14" d="M270.37,67.83c-0.45-0.03-0.88-0.04-1.3-0.09c-0.53-0.06-0.87-0.39-0.9-0.92
					c-0.04-0.6,0.32-0.97,0.89-1.07c0.42-0.07,0.85-0.05,1.27-0.06c0.64-0.02,1.28-0.02,1.89-0.25c1.13-0.42,1.49-1.25,0.96-2.32
					c-0.38-0.77-0.92-1.43-1.59-1.98c-0.75-0.63-1.51-1.25-2.22-1.93c-1.08-1.04-1.58-2.31-1.35-3.82c0.26-1.71,1.74-3.06,3.4-3.11
					c0.77-0.02,1.19,0.23,1.29,0.76c0.1,0.56-0.18,0.99-0.97,1.06c-2.01,0.18-2.31,2.49-0.95,3.63c0.72,0.6,1.43,1.21,2.16,1.8
					c0.94,0.77,1.66,1.72,2.19,2.8c0.96,1.95,0.1,4.16-1.92,4.97c-0.35,0.14-0.73,0.26-1.1,0.33
					C271.54,67.73,270.94,67.77,270.37,67.83z"/>
				<path class="st14" d="M242.98,60.65c0.16-2.2,0.61-4.3,2.04-6.08c0.72-0.9,1.63-1.49,2.78-1.68c0.55-0.09,1.11-0.07,1.61,0.25
					c0.35,0.23,0.54,0.55,0.45,0.98c-0.09,0.43-0.38,0.65-0.79,0.71c-0.16,0.02-0.34,0-0.51-0.02c-0.85-0.08-1.51,0.31-1.97,0.96
					c-1.42,2.03-1.86,4.3-1.21,6.68c0.54,1.97,2.33,2.54,4.03,1.42c0.39-0.26,0.76-0.55,1.15-0.81c0.49-0.33,0.98-0.32,1.37,0.15
					c0.39,0.46,0.29,0.94-0.06,1.39c-2.33,2.99-6.76,2.48-8.3-0.97C243.14,62.68,242.98,61.68,242.98,60.65z"/>
			</g>
		</g>
		<g>
			<g>
				<path class="st14" d="M184.07,45.99c0.38-0.26,0.46-0.7,0.65-1.07c0.91-1.83,1.74-3.7,2.82-5.44c0.27-0.43,0.53-0.88,0.87-1.25
					c0.77-0.84,1.83-0.6,2.19,0.47c0.19,0.57,0.21,1.17,0.22,1.77c0.01,1.66,0.01,3.32,0.03,4.98c0.02,1.15,0.01,2.3,0.21,3.44
					c0.04,0.21,0.05,0.43,0.04,0.64c-0.04,0.67-0.39,1.1-0.95,1.17c-0.57,0.07-1.09-0.23-1.23-0.88c-0.18-0.87-0.27-1.77-0.32-2.66
					c-0.06-1.1-0.04-2.21-0.07-3.32c-0.01-0.27,0.12-0.59-0.16-0.83c-0.41,0.18-0.46,0.59-0.62,0.91c-0.82,1.68-1.62,3.38-2.45,5.06
					c-0.36,0.73-0.76,1.52-1.77,1.37c-0.99-0.14-1.18-0.99-1.37-1.79c-0.37-1.57-0.73-3.14-1.1-4.75c-0.35,0.31-0.36,0.71-0.45,1.07
					c-0.4,1.61-0.8,3.22-1.22,4.83c-0.1,0.37-0.22,0.74-0.4,1.07c-0.26,0.46-0.71,0.62-1.21,0.44c-0.51-0.19-0.7-0.61-0.6-1.13
					c0.1-0.54,0.26-1.08,0.39-1.61c0.67-2.81,1.14-5.68,2.05-8.43c0.13-0.4,0.26-0.82,0.47-1.18c0.56-0.94,1.73-0.94,2.27,0.01
					c0.18,0.32,0.28,0.71,0.35,1.08c0.34,1.71,0.66,3.43,1,5.14C183.76,45.4,183.76,45.75,184.07,45.99z"/>
				<path class="st14" d="M165.28,45.12c0,1.45,0,2.89,0,4.34c0,0.3,0.03,0.6-0.01,0.89c-0.09,0.57-0.44,0.94-1.01,0.98
					c-0.58,0.04-0.98-0.29-1.13-0.84c-0.1-0.36-0.11-0.75-0.13-1.13c-0.03-0.81-0.04-1.62-0.03-2.43c0-0.43-0.2-0.62-0.62-0.61
					c-0.68,0.01-1.36,0.01-2.04,0.01c-0.43,0-0.61,0.21-0.6,0.63c0.01,0.72,0.01,1.45,0.01,2.17c0,0.34,0.02,0.68-0.02,1.02
					c-0.07,0.76-0.46,1.2-1.05,1.23c-0.63,0.04-1.1-0.42-1.19-1.23c-0.04-0.38-0.02-0.76-0.01-1.15c0.06-2.51,0.12-5.02,0.19-7.53
					c0.01-0.47,0.02-0.94,0.11-1.4c0.13-0.73,0.52-1.07,1.09-0.99c0.61,0.08,0.87,0.5,0.88,1.07c0.02,0.89,0,1.79,0,2.68
					c0,0.3,0,0.6,0.01,0.89c0.01,0.3,0.17,0.47,0.47,0.5c0.17,0.01,0.34,0.02,0.51,0.02c2.23,0.06,2.23,0.06,2.25-2.14
					c0-0.68-0.02-1.36,0.02-2.04c0.04-0.82,0.39-1.23,0.98-1.24c0.59-0.01,1.02,0.42,1.04,1.2c0.04,1.7,0.01,3.4,0.01,5.1
					C165.1,45.12,165.19,45.12,165.28,45.12z"/>
				<path class="st14" d="M170.69,44.4c0.06-1.23,0.1-2.47,0.18-3.7c0.04-0.57-0.19-0.77-0.73-0.74c-0.59,0.03-1.19,0.06-1.79,0.01
					c-0.75-0.06-1.17-0.49-1.16-1.1c0.01-0.56,0.36-0.95,1.06-1.08c0.42-0.08,0.85-0.09,1.27-0.1c1.74-0.05,3.49-0.08,5.23-0.11
					c0.34-0.01,0.68-0.01,1.02,0.04c0.59,0.09,0.9,0.49,0.9,1.06c0,0.51-0.28,0.89-0.79,1.03c-0.62,0.17-1.27,0.14-1.9,0.18
					c-1.01,0.06-1.02,0.06-1.04,1.11c-0.05,2.38-0.07,4.77,0.07,7.15c0.02,0.38,0.04,0.77,0,1.15c-0.06,0.59-0.42,0.93-1.01,0.95
					c-0.59,0.02-0.98-0.3-1.09-0.87c-0.09-0.46-0.14-0.93-0.15-1.39c-0.02-1.19-0.01-2.38-0.01-3.57
					C170.72,44.4,170.71,44.4,170.69,44.4z"/>
				<path class="st14" d="M198.11,43.11c-0.04,1.15,0.08,2.42,0.11,3.7c0.02,0.67,0.28,0.88,0.92,0.87c0.77-0.01,1.53,0.07,2.3,0.11
					c0.97,0.05,1.44,0.4,1.46,1.07c0.02,0.69-0.45,1.14-1.38,1.16c-1.32,0.03-2.64,0.01-3.96-0.06c-0.98-0.05-1.46-0.59-1.54-1.69
					c-0.07-1.02-0.08-2.05-0.07-3.07c0.01-2.05,0.04-4.09,0.07-6.14c0-0.17,0-0.34,0.02-0.51c0.09-0.56,0.36-0.97,0.98-0.99
					c0.61-0.01,0.96,0.37,1.01,0.94c0.07,0.81,0.06,1.62,0.08,2.43C198.12,41.61,198.11,42.29,198.11,43.11z"/>
			</g>
		</g>
		<g>
			<g>
				<path class="st14" d="M308.24,72.17c-0.03-1.11,0.25-2.3,0.61-3.49c0.9-2.92,4.37-3.29,6.25-1.19c0.59,0.66,0.96,1.43,1.1,2.28
					c0.33,1.98,0.13,3.91-0.8,5.72c-0.21,0.42-0.48,0.81-0.81,1.14c-1.78,1.81-4.35,1.48-5.59-0.73
					C308.45,74.93,308.23,73.9,308.24,72.17z M314.22,71.44c0.02-0.64-0.03-1.27-0.28-1.88c-0.32-0.77-0.87-1.27-1.73-1.29
					c-0.86-0.03-1.34,0.58-1.59,1.26c-0.58,1.6-0.64,3.24-0.08,4.87c0.22,0.63,0.57,1.19,1.3,1.26c0.76,0.06,1.27-0.4,1.62-1.03
					C314.01,73.64,314.24,72.57,314.22,71.44z"/>
				<path class="st14" d="M336.98,71.89c0.02,1.26-0.26,2.45-0.81,3.57c-0.34,0.7-0.81,1.3-1.45,1.75c-1.1,0.76-2.36,0.74-3.44-0.06
					c-0.2-0.15-0.39-0.33-0.56-0.51c-2.1-2.31-1.94-7.38,0.3-9.54c1.4-1.35,3.2-1.3,4.48,0.16
					C336.65,68.58,336.98,70.19,336.98,71.89z M331.33,72.08c-0.01,0.95,0.16,1.87,0.63,2.7c0.63,1.12,1.5,1.18,2.12,0.08
					c1.06-1.86,1.14-3.81,0.17-5.73c-0.61-1.2-1.47-1.16-2.18,0.02C331.54,70.05,331.34,71.04,331.33,72.08z"/>
				<path class="st14" d="M322.49,70.34c-0.77,0.74-1.49,1.44-2.22,2.14c-0.31,0.29-0.6,0.61-0.94,0.86
					c-0.38,0.29-0.81,0.28-1.16-0.07c-0.35-0.35-0.33-0.76-0.1-1.17c0.08-0.15,0.2-0.28,0.32-0.4c1.5-1.51,2.99-3.03,4.5-4.53
					c0.38-0.37,0.81-0.64,1.38-0.37c0.53,0.25,0.73,0.69,0.74,1.24c0.01,0.34,0,0.68-0.04,1.02c-0.1,0.85-0.19,1.69-0.33,2.53
					c-0.27,1.68-0.43,3.38-0.48,5.08c-0.03,1.1-0.37,1.6-1.05,1.61c-0.69,0.01-1.03-0.52-1.03-1.6c0-1.66,0.18-3.31,0.41-4.96
					C322.55,71.32,322.74,70.91,322.49,70.34z"/>
				<path class="st14" d="M344.03,70.47c-0.67,0.71-1.18,1.26-1.7,1.81c-0.2,0.22-0.4,0.45-0.62,0.64
					c-0.39,0.33-0.83,0.44-1.27,0.08c-0.41-0.33-0.47-0.86-0.05-1.36c1.26-1.49,2.54-2.97,3.88-4.4c0.75-0.8,1.74-0.51,2.06,0.55
					c0.19,0.62,0.13,1.27,0.07,1.9c-0.23,2.24-0.49,4.48-0.76,6.72c-0.13,1.06-0.57,1.55-1.24,1.46c-0.68-0.08-0.95-0.61-0.84-1.71
					c0.14-1.31,0.31-2.62,0.45-3.93C344.06,71.72,344.2,71.22,344.03,70.47z"/>
			</g>
		</g>
		<g>
			<g>
				<path class="st14" d="M94.8,79.16c-0.02-2.16,0.43-4.48,1.6-6.63c1.62-2.97,4.63-4.29,7.89-3.51c1.09,0.26,1.96,0.82,2.48,1.84
					c0.29,0.57,0.17,1.12-0.26,1.36c-0.49,0.28-0.93,0.14-1.24-0.29c-1.04-1.46-2.51-1.26-3.94-0.97c-1.32,0.27-2.25,1.15-2.94,2.3
					c-0.85,1.42-1.27,2.97-1.44,4.6c-0.28,2.64,0.14,5.18,1.11,7.64c0.11,0.28,0.23,0.55,0.38,0.81c1.23,2.25,3.52,2.79,5.63,1.34
					c0.68-0.47,1.2-1.08,1.58-1.81c0.15-0.3,0.29-0.62,0.47-0.91c0.3-0.5,0.74-0.7,1.31-0.5c0.52,0.18,0.75,0.75,0.53,1.39
					c-1.13,3.29-4.67,5.56-7.97,4.45c-1.68-0.57-2.79-1.74-3.56-3.29C95.43,84.95,94.79,81.99,94.8,79.16z"/>
				<path class="st14" d="M132.7,80.53c0.13-1.8,0.13-1.8-1.69-1.74c-0.38,0.01-0.77,0.02-1.15-0.03c-0.48-0.06-0.77-0.36-0.78-0.86
					c-0.01-0.49,0.27-0.83,0.74-0.89c0.67-0.1,1.36-0.11,2.03-0.18c1.16-0.12,1.16-0.13,1.11-1.32c-0.02-0.38-0.08-0.76-0.08-1.15
					c0.01-0.76,0.31-1.18,0.84-1.22c0.54-0.04,0.9,0.33,1.01,1.07c0.09,0.63,0.17,1.27,0.19,1.91c0.02,0.56,0.28,0.75,0.8,0.7
					c0.64-0.06,1.27-0.15,1.91-0.16c0.79-0.01,1.22,0.37,1.23,0.98c0.01,0.56-0.35,0.95-1.08,1.04c-0.67,0.09-1.36,0.09-2.04,0.14
					c-0.87,0.06-0.88,0.05-0.94,0.96c-0.05,0.68-0.06,1.36-0.09,2.04c-0.02,0.4-0.15,0.75-0.5,0.99c-0.61,0.42-1.37,0.04-1.52-0.75
					c-0.02-0.08-0.02-0.17-0.02-0.25C132.7,81.38,132.7,80.95,132.7,80.53z"/>
				<path class="st14" d="M116.63,80.72c0.16-1.85,0.16-1.85-1.75-1.97c-0.38-0.02-0.77-0.01-1.14-0.09
					c-0.45-0.11-0.74-0.42-0.72-0.92c0.02-0.5,0.32-0.77,0.8-0.84c0.72-0.1,1.44-0.04,2.16,0.05c0.58,0.07,0.89-0.1,0.86-0.74
					c-0.03-0.59-0.01-1.19-0.02-1.78c0-0.53,0.19-0.92,0.74-1.03c0.49-0.1,0.96,0.24,1.07,0.86c0.1,0.54,0.08,1.1,0.1,1.65
					c0.03,1.07,0.03,1.07,1.05,1.08c0.42,0,0.85-0.03,1.27,0.01c0.69,0.06,1.11,0.44,1.12,0.98c0.01,0.54-0.4,0.95-1.09,1.02
					c-0.46,0.04-0.93,0.01-1.4,0.02c-0.92,0.03-0.93,0.04-0.97,0.92c-0.03,0.68,0,1.36-0.05,2.04c-0.06,0.82-0.41,1.22-1,1.24
					c-0.63,0.01-1.01-0.46-1.04-1.33C116.62,81.48,116.63,81.1,116.63,80.72z"/>
			</g>
		</g>
		<g>
			<g>
				<path class="st14" d="M140.95,113.18c0.01,0.96-0.29,2.09-1.09,3.05c-1.17,1.41-2.91,1.52-4.28,0.3
					c-1.93-1.73-2.13-5.55-0.4-7.47c1.21-1.34,2.99-1.4,4.29-0.12C140.58,110.02,140.96,111.4,140.95,113.18z M138.84,112.87
					c0.01-0.89-0.18-1.67-0.73-2.31c-0.46-0.53-0.97-0.52-1.41-0.02c-0.88,1-0.74,3.48,0.25,4.38c0.51,0.46,0.97,0.41,1.39-0.18
					C138.76,114.17,138.87,113.5,138.84,112.87z"/>
				<path class="st14" d="M122.5,113.43c0.01,0.52-0.19,1.47-0.74,2.31c-0.78,1.19-1.87,1.85-3.32,1.72
					c-1.43-0.13-2.13-1.16-2.55-2.36c-0.67-1.93-0.31-3.8,0.74-5.49c1.1-1.77,3.72-1.7,4.96,0.08
					C122.27,110.67,122.5,111.78,122.5,113.43z M117.57,113.14c-0.03,0.61,0.09,1.18,0.4,1.7c0.38,0.63,0.88,0.72,1.49,0.32
					c0.37-0.24,0.59-0.59,0.74-1c0.33-0.96,0.26-1.92-0.11-2.85c-0.18-0.45-0.45-0.84-1-0.83c-0.61,0.01-1.03,0.34-1.22,0.92
					C117.67,111.96,117.54,112.54,117.57,113.14z"/>
				<path class="st14" d="M98.52,114.9c0.08-1.36,0.27-2.57,0.66-3.74c0.31-0.91,0.96-1.36,1.88-1.48c1.77-0.24,3.34,0.9,3.54,2.67
					c0.18,1.55-0.06,3.05-0.83,4.43c-0.72,1.27-1.79,1.86-2.89,1.65c-1.12-0.22-2.06-1.3-2.28-2.63
					C98.55,115.46,98.54,115.12,98.52,114.9z M102.54,113.02c0,0.04,0-0.17-0.02-0.38c-0.07-0.55-0.4-0.83-0.93-0.87
					c-0.55-0.05-0.74,0.33-0.83,0.78c-0.1,0.5-0.17,1.01-0.23,1.51c-0.06,0.51-0.11,1.02,0.07,1.52c0.12,0.32,0.24,0.68,0.62,0.74
					c0.42,0.07,0.58-0.3,0.74-0.59C102.38,114.98,102.52,114.14,102.54,113.02z"/>
				<path class="st14" d="M147.67,110.75c-0.35,0.42-0.7,0.84-1.05,1.25c-0.19,0.23-0.38,0.46-0.6,0.66
					c-0.35,0.32-0.77,0.4-1.16,0.1c-0.43-0.33-0.52-0.79-0.21-1.24c1.01-1.47,2.11-2.89,3.36-4.15c0.68-0.69,1.55-0.38,1.89,0.56
					c0.15,0.41,0.15,0.83,0.15,1.26c0,1.95-0.01,3.91-0.01,5.86c0,0.38,0.01,0.77-0.18,1.12c-0.22,0.42-0.57,0.62-1.04,0.56
					c-0.41-0.06-0.72-0.3-0.8-0.72c-0.07-0.37-0.07-0.76-0.08-1.14c-0.01-1.35,0-2.69,0-4.04
					C147.85,110.8,147.76,110.77,147.67,110.75z"/>
				<path class="st14" d="M109.91,112.37c-0.5,0.45-1,0.9-1.5,1.35c-0.22,0.2-0.44,0.41-0.68,0.58c-0.43,0.31-0.9,0.34-1.27-0.07
					c-0.36-0.41-0.28-0.86,0.04-1.28c0.05-0.07,0.11-0.13,0.17-0.19c1.07-1.04,2.15-2.07,3.22-3.11c0.43-0.41,0.92-0.64,1.51-0.42
					c0.55,0.21,0.75,0.7,0.78,1.22c0.13,2.13,0,4.26-0.17,6.38c-0.05,0.59-0.42,0.95-1.01,0.94c-0.6-0.01-0.93-0.42-1-0.98
					c-0.06-0.46-0.02-0.94,0-1.4c0.05-0.97,0.11-1.94,0.17-2.91C110.09,112.45,110,112.41,109.91,112.37z"/>
				<path class="st14" d="M128.17,112.43c-0.63,0.32-0.85,0.86-1.24,1.23c-0.48,0.47-0.97,0.54-1.35,0.19
					c-0.42-0.37-0.44-0.84-0.14-1.26c0.9-1.29,1.86-2.54,2.97-3.65c0.71-0.7,1.72-0.28,1.91,0.71c0.06,0.33,0.05,0.68,0.05,1.02
					c-0.03,1.87-0.07,3.74-0.11,5.6c0,0.13,0,0.26-0.02,0.38c-0.1,0.71-0.45,1.11-0.99,1.13c-0.55,0.02-0.97-0.36-1.05-1.06
					c-0.07-0.59-0.03-1.19-0.03-1.78C128.17,114.15,128.17,113.35,128.17,112.43z"/>
			</g>
		</g>
		<g>
			<g>
				<path class="st14" d="M186.88,86.23c-0.14,0.12-0.31,0.25-0.45,0.4c-0.45,0.46-0.87,0.94-1.33,1.38
					c-0.57,0.53-1.16,0.58-1.59,0.18c-0.42-0.4-0.41-1,0.12-1.59c0.57-0.63,1.19-1.22,1.81-1.8c0.3-0.28,0.37-0.54,0.1-0.88
					c-0.39-0.5-0.76-1.03-1.15-1.53c-0.15-0.2-0.36-0.37-0.5-0.58c-0.29-0.44-0.32-0.89,0.1-1.27c0.37-0.33,0.8-0.29,1.17-0.01
					c0.66,0.49,1.14,1.14,1.63,1.78c0.51,0.67,0.53,0.66,1.15,0.09c0.41-0.37,0.79-0.78,1.2-1.15c0.61-0.54,1.04-0.6,1.46-0.23
					c0.43,0.39,0.4,0.93-0.16,1.56c-0.48,0.54-0.99,1.06-1.52,1.55c-0.36,0.33-0.37,0.62-0.07,0.98c0.45,0.56,0.88,1.15,1.32,1.73
					c0.18,0.24,0.37,0.47,0.51,0.73c0.26,0.48,0.16,0.92-0.25,1.26c-0.42,0.34-0.9,0.3-1.28-0.06c-0.66-0.61-1.14-1.37-1.66-2.1
					C187.34,86.48,187.23,86.23,186.88,86.23z"/>
				<path class="st14" d="M174.72,87.18c0.59,0.07,1.65,0.08,2.72,0.09c0.3,0,0.6,0.01,0.89,0.09c0.45,0.12,0.73,0.45,0.74,0.93
					c0.01,0.48-0.26,0.81-0.72,0.94c-0.28,0.08-0.59,0.09-0.88,0.07c-2-0.1-4-0.22-6-0.34c-0.34-0.02-0.69-0.06-1-0.16
					c-0.6-0.2-0.9-0.67-0.76-1.15c0.16-0.55,0.58-0.68,1.1-0.65C171.95,87.05,173.1,87.11,174.72,87.18z"/>
			</g>
		</g>
		<g>
			<path class="st14" d="M74.47,55.59c1.06,0.03,1.85,0.77,1.84,1.71c-0.01,1.07-1.01,2.06-2.04,2.03c-1-0.03-1.74-0.88-1.74-1.98
				C72.53,56.36,73.41,55.56,74.47,55.59z"/>
			<path class="st14" d="M60.54,57.22c1.04-0.02,1.94,0.78,1.98,1.76c0.05,1.07-0.71,1.91-1.76,1.94c-1.06,0.04-1.92-0.73-1.96-1.76
				C58.75,58.08,59.51,57.23,60.54,57.22z"/>
			<path class="st14" d="M86.86,58.61c-0.92,0.01-1.61-0.66-1.63-1.6c-0.02-1.07,0.77-1.87,1.84-1.86c0.9,0.01,1.54,0.63,1.57,1.51
				C88.68,57.69,87.86,58.59,86.86,58.61z"/>
		</g>
		<g>
			<g>
				<path class="st14" d="M394.15,89.8c-0.08,2.82-1.39,6.22-4.34,8.9c-0.4,0.36-0.52,0.73-0.51,1.23c0.02,1.02,0,2.05,0.02,3.07
					c0.01,0.65-0.14,1.19-0.81,1.44c-0.39,0.14-0.46,0.43-0.51,0.79c-0.08,0.59-0.18,1.18-0.36,1.75c-0.79,2.51-3.87,3.83-6.24,2.69
					c-0.72-0.35-1.24-0.89-1.57-1.62c-0.24-0.55-0.39-1.12-0.51-1.71c-0.06-0.29-0.03-0.7-0.21-0.85c-1.33-1.1-0.81-2.66-1.04-4.02
					c-0.02-0.13-0.02-0.25-0.02-0.38c0-1.09-0.35-1.86-1.37-2.51c-6.16-3.89-6.97-12.34-1.87-17.92c3.04-3.32,7.06-4.2,11.38-3.04
					C391.4,79,394.19,82.99,394.15,89.8z M385.67,97.94c0.06,1.36,0.07,2.73,0.28,4.08c0.09,0.59,0.47,0.77,0.97,0.54
					c0.3-0.14,0.3-0.38,0.3-0.64c0.01-0.9,0.02-1.79,0.01-2.69c-0.01-0.78,0.28-1.4,0.91-1.87c0.59-0.43,1.1-0.94,1.53-1.53
					c1.83-2.47,2.61-5.25,2.35-8.3c-0.48-5.67-5.01-9.12-10.61-8.11c-4.17,0.75-6.84,3.33-7.67,8.14c-0.6,3.51,0.54,6.57,3.42,8.84
					c0.4,0.32,0.8,0.65,1.24,0.91c0.97,0.57,1.45,1.39,1.49,2.51c0.04,0.94,0.13,1.87,0.18,2.81c0.02,0.38,0.17,0.52,0.56,0.48
					c0.52-0.04,0.75-0.28,0.76-0.81c0.05-2.13,0.26-4.26-0.02-6.38c-0.11-0.85,0-1.26-1.27-1.33c-0.99-0.06-1.92-0.42-2.62-1.18
					c-0.76-0.82-0.85-1.94-0.25-2.82c0.55-0.81,1.58-1.06,2.63-0.66c0.8,0.31,1.33,0.91,1.71,1.65c0.21,0.42,0.38,0.86,0.53,1.3
					c0.09,0.26,0.2,0.44,0.5,0.49c1.15,0.17,1.83-0.29,2.07-1.43c0.13-0.63,0.32-1.24,0.65-1.79c0.5-0.85,1.24-1.39,2.22-1.57
					c1.36-0.25,2.48,0.72,2.41,2.09c-0.04,0.76-0.37,1.39-0.95,1.89c-0.69,0.6-1.49,0.98-2.34,1.29c-0.99,0.35-1,0.36-1.02,1.43
					C385.65,96.15,385.67,97.05,385.67,97.94z M382.77,98.61c-0.05,0-0.1,0-0.15,0c0,1.19,0.02,2.37-0.01,3.56
					c-0.01,0.5,0.15,0.71,0.65,0.64c0.21-0.03,0.42-0.04,0.63-0.03c0.63,0.04,0.82-0.25,0.74-0.85c-0.27-2.19-0.27-4.4-0.26-6.61
					c0-0.44,0.03-0.85-0.65-0.8c-0.97,0.06-1.15,0.17-1.12,0.91C382.66,96.5,382.72,97.56,382.77,98.61z M383.21,108.03
					c1.61-0.04,2.69-1.18,2.68-2.79c0-0.43-0.25-0.48-0.57-0.47c-1.1,0.04-2.2,0.05-3.3,0.14c-0.98,0.08-1.01,0.17-0.8,1.09
					c0.07,0.29,0.14,0.58,0.24,0.85C381.77,107.69,382.32,108.05,383.21,108.03z M385.96,92.58c1.07-0.16,1.86-0.59,2.47-1.32
					c0.29-0.34,0.38-0.78,0.08-1.17c-0.33-0.42-0.77-0.31-1.16-0.11C386.33,90.51,386.05,91.44,385.96,92.58z M380.87,93.28
					c-0.3-0.88-0.54-1.61-1.25-2.03c-0.42-0.25-0.88-0.37-1.27,0.07c-0.33,0.37-0.25,0.97,0.24,1.34
					C379.2,93.14,379.91,93.38,380.87,93.28z"/>
				<path class="st14" d="M364.16,90.76c-0.08,0-0.21,0-0.33,0c-0.38-0.01-0.67-0.15-0.7-0.57c-0.03-0.35,0.19-0.6,0.49-0.64
					c1.08-0.16,2.17-0.28,3.26-0.38c0.36-0.03,0.68,0.13,0.69,0.57c0.02,0.41-0.25,0.63-0.61,0.68
					C366.05,90.55,365.13,90.64,364.16,90.76z"/>
				<path class="st14" d="M367.31,98.88c-0.2-0.01-0.34-0.1-0.43-0.25c-0.15-0.25-0.13-0.53,0.07-0.7c0.9-0.77,1.87-1.46,2.88-2.08
					c0.23-0.14,0.51-0.04,0.67,0.19c0.13,0.19,0.13,0.43-0.03,0.59c-0.87,0.88-1.88,1.57-2.93,2.22
					C367.48,98.89,367.38,98.87,367.31,98.88z"/>
				<path class="st14" d="M383.62,72.93c0,0.43,0.02,0.85-0.01,1.28c-0.02,0.32-0.21,0.6-0.55,0.6c-0.41,0-0.6-0.31-0.6-0.68
					c-0.02-0.85-0.01-1.7,0.01-2.56c0.01-0.33,0.21-0.57,0.56-0.59c0.35-0.02,0.57,0.22,0.59,0.54
					C383.65,72,383.63,72.47,383.62,72.93C383.62,72.93,383.62,72.93,383.62,72.93z"/>
				<path class="st14" d="M392.33,76.4c-0.46,0.03-0.79-0.4-0.56-0.77c0.56-0.9,1.22-1.73,1.99-2.46c0.19-0.18,0.48-0.16,0.7,0.03
					c0.17,0.15,0.25,0.37,0.13,0.57c-0.55,0.91-1.22,1.73-1.95,2.49C392.55,76.35,392.4,76.37,392.33,76.4z"/>
				<path class="st14" d="M374.78,74.69c0,0.27,0.01,0.44,0,0.6c-0.02,0.23-0.16,0.4-0.38,0.45c-0.27,0.06-0.53-0.06-0.61-0.32
					c-0.33-1.01-0.41-2.06-0.47-3.11c-0.01-0.25,0.17-0.47,0.47-0.5c0.36-0.04,0.58,0.16,0.64,0.48
					C374.57,73.12,374.68,73.96,374.78,74.69z"/>
				<path class="st14" d="M397.01,96.87c0.12,0.03,0.26,0.04,0.36,0.1c0.78,0.49,1.56,1.01,2.22,1.67c0.23,0.23,0.29,0.52,0.04,0.78
					c-0.2,0.21-0.45,0.25-0.69,0.09c-0.76-0.53-1.51-1.07-2.25-1.62c-0.22-0.16-0.27-0.42-0.18-0.68
					C396.6,96.97,396.79,96.9,397.01,96.87z"/>
				<path class="st14" d="M400.12,89.2c0.84,0.12,1.55,0.2,2.25,0.32c0.26,0.04,0.47,0.19,0.5,0.49c0.04,0.37-0.2,0.6-0.5,0.61
					c-0.97,0.03-1.93-0.09-2.85-0.41c-0.21-0.07-0.29-0.29-0.27-0.52c0.03-0.3,0.22-0.44,0.49-0.48
					C399.91,89.18,400.08,89.2,400.12,89.2z"/>
				<path class="st14" d="M369.04,80.98c-0.1,0.38-0.39,0.64-0.74,0.44c-0.77-0.43-1.5-0.94-2.22-1.46
					c-0.21-0.15-0.27-0.43-0.1-0.68c0.13-0.19,0.33-0.33,0.53-0.26c0.98,0.34,1.78,0.94,2.47,1.7
					C369.03,80.78,369.02,80.89,369.04,80.98z"/>
				<path class="st14" d="M400.3,80.25c0.41,0.01,0.68,0.09,0.75,0.45c0.06,0.29-0.09,0.51-0.35,0.6c-0.75,0.26-1.51,0.52-2.28,0.74
					c-0.29,0.08-0.6,0.03-0.74-0.31c-0.14-0.33,0.02-0.6,0.31-0.72C398.76,80.67,399.56,80.4,400.3,80.25z"/>
			</g>
		</g>
		<g>
			<path class="st14" d="M440.91,95.02c-2.81,0-5.62,0-8.43,0c-0.34,0-0.68,0.03-1.02-0.01c-0.73-0.08-1.19-0.5-1.22-1.08
				c-0.03-0.58,0.41-1.05,1.13-1.16c0.25-0.04,0.51-0.04,0.76-0.04c5.84-0.04,11.67-0.08,17.51-0.11c0.43,0,0.86-0.01,1.26,0.15
				c0.41,0.16,0.6,0.48,0.59,0.9c-0.01,0.42-0.2,0.76-0.62,0.87c-0.33,0.08-0.67,0.11-1.01,0.12c-2.98,0.09-5.96,0.18-8.94,0.27
				C440.91,94.95,440.91,94.99,440.91,95.02z"/>
			<path class="st14" d="M438.87,98.29c2.21,0,4.43-0.01,6.64,0.01c1.05,0.01,1.51,0.33,1.55,0.95c0.03,0.67-0.48,1.06-1.58,1.08
				c-4.43,0.1-8.86,0.17-13.29,0.24c-0.34,0.01-0.69-0.03-1.01-0.11c-0.51-0.14-0.78-0.5-0.77-1.04c0.01-0.54,0.29-0.9,0.8-1.02
				c0.37-0.08,0.76-0.08,1.14-0.08c2.17-0.01,4.34,0,6.52,0C438.87,98.3,438.87,98.3,438.87,98.29z"/>
			<path class="st14" d="M434.83,89.69c-0.93,0-1.87,0-2.8,0c-0.3,0-0.6,0.01-0.89-0.05c-0.56-0.12-0.91-0.49-0.91-1.07
				c0.01-0.52,0.32-0.87,0.83-0.99c0.25-0.06,0.5-0.08,0.76-0.09c2.09-0.04,4.17-0.07,6.26-0.11c0.04,0,0.09,0,0.13,0
				c0.89,0.04,1.38,0.38,1.4,0.98c0.02,0.62-0.44,1.02-1.33,1.05c-1.15,0.04-2.3,0.01-3.45,0.01
				C434.83,89.51,434.83,89.6,434.83,89.69z"/>
			<path class="st14" d="M434.38,104.94c-0.8,0.04-1.61,0.11-2.41,0.11c-0.85,0-1.31-0.4-1.3-1.06c0-0.62,0.39-1,1.18-1.05
				c1.61-0.12,3.22-0.22,4.83-0.17c0.13,0,0.26,0,0.38,0.02c0.66,0.12,1.09,0.55,1.03,1.08c-0.08,0.59-0.47,0.91-1.04,0.93
				c-0.89,0.03-1.78,0.01-2.67,0.01C434.38,104.85,434.38,104.9,434.38,104.94z"/>
		</g>
		<g>
			<path class="st14" d="M440.87,51.99c0,0.54-0.19,0.98-0.78,1.13c-0.48,0.13-0.98-0.16-1.14-0.77c-0.24-0.86-0.37-1.74-0.57-2.61
				c-0.22-0.95-0.23-0.95-1.16-0.98c-2.29-0.07-2.29-0.07-3.07,2.03c-0.21,0.56-0.4,1.12-0.65,1.66c-0.32,0.69-0.79,0.93-1.28,0.73
				c-0.48-0.2-0.63-0.69-0.38-1.44c0.77-2.3,1.55-4.59,2.35-6.87c0.37-1.04,0.8-2.06,1.23-3.08c0.15-0.35,0.34-0.69,0.57-0.99
				c0.79-1.03,1.84-0.93,2.41,0.23c0.2,0.42,0.36,0.87,0.46,1.32c0.64,2.9,1.25,5.81,1.87,8.72
				C440.78,51.37,440.82,51.67,440.87,51.99z M436.98,43.44c-0.65,1.24-1.08,2.24-1.29,3.34c0.51,0.18,0.94,0.06,1.36,0.08
				c0.55,0.02,0.63-0.27,0.52-0.73C437.38,45.34,437.22,44.55,436.98,43.44z"/>
			<path class="st14" d="M418.14,52.04c0,0.83-0.32,1.31-0.85,1.4c-0.57,0.09-1.03-0.31-1.16-1.08c-0.14-0.8-0.24-1.6-0.33-2.41
				c-0.07-0.61-0.33-0.94-0.99-0.82c-0.08,0.02-0.17,0.01-0.25,0.02c-1.79,0.13-1.79,0.13-2.36,1.86c-0.2,0.61-0.38,1.22-0.6,1.82
				c-0.19,0.5-0.56,0.76-1.11,0.6c-0.49-0.15-0.61-0.56-0.57-1.02c0.03-0.3,0.08-0.59,0.17-0.88c0.95-3.18,1.89-6.37,3.14-9.45
				c0.16-0.39,0.32-0.8,0.57-1.13c0.54-0.72,1.39-0.68,1.93,0.05c0.12,0.17,0.22,0.37,0.29,0.57C417.21,45,417.62,48.6,418.14,52.04
				z M414.64,44.33c-0.57,1.01-0.9,1.92-1.11,2.9c0.46,0.23,0.88,0.06,1.29,0.03c0.28-0.02,0.49-0.17,0.42-0.49
				C415.09,46,415.05,45.21,414.64,44.33z"/>
			<path class="st14" d="M425.05,49.3c0.45-1.04,0.89-2.05,1.33-3.06c0.51-1.17,1.01-2.35,1.52-3.52c0.14-0.31,0.29-0.62,0.49-0.89
				c0.28-0.38,0.7-0.51,1.14-0.31c0.49,0.22,0.66,0.63,0.55,1.16c-0.04,0.17-0.09,0.33-0.16,0.48c-1.07,2.46-2.14,4.92-3.23,7.38
				c-0.21,0.46-0.46,0.92-0.75,1.33c-0.78,1.09-1.78,1.03-2.37-0.16c-0.3-0.61-0.52-1.27-0.68-1.92c-0.62-2.48-1.2-4.97-1.79-7.46
				c-0.15-0.65,0.06-1.12,0.56-1.25c0.62-0.16,0.98,0.19,1.16,0.73c0.27,0.81,0.5,1.63,0.72,2.45c0.36,1.4,0.7,2.81,1.05,4.22
				C424.65,48.76,424.67,49.06,425.05,49.3z"/>
			<path class="st14" d="M407.08,42.44c-0.13,1.83-0.24,3.66-0.39,5.48c-0.11,1.28-0.43,2.52-1.07,3.65
				c-0.7,1.24-1.69,2.04-3.19,1.96c-1.51-0.08-2.34-1.08-2.99-2.3c-0.25-0.47-0.24-0.91,0.21-1.25c0.4-0.3,0.91-0.16,1.33,0.35
				c0.21,0.26,0.37,0.58,0.61,0.82c0.72,0.75,1.53,0.67,2.13-0.22c0.59-0.87,0.79-1.87,0.92-2.9c0.24-1.82,0.12-3.67,0.43-5.48
				c0.01-0.08,0.01-0.17,0.02-0.25c0.12-0.98,0.53-1.45,1.16-1.36C406.86,41.04,407.17,41.57,407.08,42.44z"/>
		</g>
		<path class="st14" d="M408.46,134.2c0.12,3.69-2.96,8.05-7.82,8.92c-1.5,0.27-2.96,0.19-4.4-0.24c-0.59-0.18-0.89-0.04-1.19,0.47
			c-1.13,1.96-2.31,3.89-3.46,5.84c-0.84,1.43-1.69,2.86-2.67,4.21c-0.23,0.31-0.46,0.63-0.74,0.9c-0.55,0.55-0.94,0.61-1.61,0.24
			c-0.5-0.27-0.98-0.56-1.46-0.87c-0.9-0.58-1.07-1.1-0.62-2.05c0.31-0.67,0.69-1.31,1.08-1.94c1.95-3.16,3.91-6.31,5.89-9.45
			c0.32-0.51,0.38-0.83-0.07-1.36c-1.63-1.9-2.68-6.47-0.71-9.49c0.33-0.5,0.64-1.02,1.01-1.49c2.59-3.35,6.84-4.31,10.65-2.42
			c1.34,0.67,2.57,1.5,3.66,2.51C407.83,129.64,408.35,131.84,408.46,134.2z M404.54,133.55c-0.03-0.99-0.51-2.02-1.32-2.91
			c-1.1-1.21-2.51-1.92-4.05-2.4c-0.78-0.24-1.54-0.15-2.26,0.2c-1.2,0.59-2.19,1.42-2.93,2.53c-0.46,0.7-0.7,1.46-0.66,2.3
			c0.2,3.42,2.08,5.48,5.62,6.37c0.45,0.11,0.91,0.04,1.36-0.08C402.5,138.99,404.55,136.2,404.54,133.55z"/>
	</g>
	<g>
		<g>
			<path class="st15" d="M139.13,291.17c-0.13,4.33-1.03,8.38-2.46,12.32c-0.77,2.12-1.54,4.24-2.28,6.38
				c-0.67,1.92-1.08,3.9-1.2,5.93c-0.04,0.75,0.07,1.47,0.25,2.19c0.41,1.64,1.14,3.14,1.93,4.62c0.92,1.72,1.88,3.41,2.58,5.23
				c1.92,4.98,1.72,9.98,0.17,15c-0.74,2.41-1.92,4.59-3.32,6.67c-1.65,2.46-3.35,4.88-4.85,7.44c-0.71,1.21-1.38,2.44-1.9,3.75
				c-1.11,2.83-1.26,5.68-0.17,8.55c0.37,0.98,0.76,1.96,1.13,2.94c1.07,2.8,0.95,5.56-0.29,8.29c-0.55,1.21-1.19,2.37-1.89,3.49
				c-0.14,0.23-0.26,0.49-0.51,0.62c-0.24,0.13-0.49,0.09-0.52-0.22c-0.04-0.39-0.04-0.78-0.01-1.17c0.15-2.03-0.65-3.63-2.14-4.95
				c-1.14-1.01-2.36-1.91-3.63-2.75c-1.24-0.82-2.41-1.71-3.51-2.72c-2.53-2.32-3.26-5.21-2.76-8.5c0.35-2.34,1.27-4.48,2.35-6.57
				c0.7-1.35,1.42-2.69,2.08-4.05c0.91-1.89,1.24-3.92,1.34-6c0.07-1.37-0.28-2.61-0.9-3.81c-1.05-2.05-2.27-3.99-3.49-5.94
				c-1.12-1.79-2.12-3.62-2.45-5.76c-0.41-2.64-0.09-5.2,0.66-7.73c0.5-1.69,1.19-3.29,1.96-4.87c0.53-1.09,1.06-2.17,1.6-3.25
				c1.93-3.86,2.54-7.88,1.56-12.13c-0.6-2.58-1.07-5.18-1.21-7.84c-0.2-3.84,0.01-7.63,1.1-11.34c0.83-2.82,2.27-5.29,4.44-7.3
				c2.92-2.71,6.25-3.15,9.85-1.66c1.63,0.68,2.81,1.92,3.74,3.41c1.28,2.06,1.84,4.37,2.27,6.71
				C138.96,287.87,139.07,289.58,139.13,291.17z"/>
			<path class="st15" d="M176.08,306.69c-0.03,2.06-0.59,3.99-1.38,5.87c-1.13,2.66-2.6,5.14-4.07,7.62
				c-0.44,0.74-0.87,1.47-1.31,2.21c-1.96,3.28-2.37,6.86-2.03,10.59c0.21,2.36,0.52,4.72-0.02,7.09c-0.73,3.24-2.42,5.96-4.44,8.52
				c-1.63,2.06-3.63,3.74-5.67,5.38c-2.57,2.06-4.45,4.57-5.1,7.87c-0.21,1.07-0.38,2.15-0.57,3.22c-0.14,0.84-0.29,1.69-0.42,2.53
				c-0.66,4.57-3.4,7.47-7.47,9.28c-1.33,0.59-2.74,0.89-4.18,1.01c-1.13,0.09-2.24,0.23-3.37,0.37c-2.51,0.32-4.56,1.51-6.29,3.29
				c-0.65,0.67-1.26,1.38-1.88,2.08c-0.18,0.21-0.36,0.45-0.67,0.34c-0.33-0.12-0.25-0.44-0.28-0.7c-0.09-0.89,0.13-1.7,0.58-2.46
				c0.73-1.21,1.63-2.27,2.74-3.16c1.38-1.1,2.87-2.01,4.39-2.89c1.26-0.72,2.4-1.59,3.37-2.68c1.86-2.09,2.6-4.46,1.88-7.24
				c-0.37-1.43-0.83-2.84-1.34-4.23c-0.46-1.24-0.83-2.51-1.16-3.79c-0.76-2.99-0.28-5.79,1.17-8.46c1.31-2.41,3.08-4.39,5.36-5.92
				c1.2-0.8,2.42-1.56,3.56-2.45c3.71-2.92,6-6.67,6.82-11.34c0.46-2.62,0.72-5.22,0.54-7.89c-0.26-3.7-0.15-7.4,0.87-11.01
				c0.92-3.27,2.41-6.23,4.66-8.8c1.96-2.23,4.46-3.33,7.34-3.7c0.94-0.12,1.86,0.01,2.74,0.4c2.47,1.1,4.27,2.82,5.07,5.46
				C175.87,304.29,176.12,305.46,176.08,306.69z"/>
			<path class="st15" d="M96.06,317.5c-0.14,1.49-0.36,3.93-0.59,6.37c-0.2,2.18,0.09,4.27,1.02,6.26c0.67,1.44,1.58,2.68,2.88,3.61
				c0.82,0.59,1.64,1.19,2.42,1.83c4.24,3.46,5.99,7.93,5.32,13.34c-0.32,2.55-0.86,5.07-1.08,7.63c-0.37,4.19-0.07,8.34,1.77,12.22
				c1.85,3.89,4.89,6.38,9.05,7.48c1.35,0.36,2.72,0.65,4.03,1.17c2.53,1,4.43,2.7,5.78,5.05c0.12,0.2,0.22,0.41,0.32,0.62
				c0.09,0.17,0.18,0.36,0.04,0.54c-0.14,0.16-0.35,0.17-0.54,0.11c-0.18-0.06-0.37-0.14-0.53-0.23c-3.33-1.83-6.96-2.64-10.65-3.3
				c-1.76-0.32-3.53-0.64-5.26-1.08c-6.47-1.64-10.37-6-12.57-12.09c-1.09-3.01-1.22-6.17-1.25-9.33c-0.02-1.92-0.25-3.8-0.84-5.64
				c-0.51-1.6-1.37-2.96-2.62-4.07c-0.67-0.59-1.34-1.19-2.03-1.76c-3.86-3.22-5.68-7.41-5.88-12.37c-0.07-1.87-0.22-3.73-0.57-5.57
				c-0.92-4.86-3.75-8.28-7.92-10.74c-1.65-0.97-3.39-1.75-5.08-2.64c-3.41-1.8-5.67-4.58-6.83-8.23c-1.17-3.69,0.32-7.34,3.74-9.13
				c2.79-1.47,5.51-0.97,8.09,0.63c0.9,0.56,1.67,1.28,2.4,2.04c2.31,2.38,5.09,3.94,8.3,4.75c0.6,0.15,1.19,0.37,1.78,0.58
				C92.8,307.02,96.44,310.58,96.06,317.5z"/>
		</g>
		<path class="st16" d="M128.76,379.24c8.41-0.44,16.82-0.56,25.24-0.19c1.61,0.07,2.27,0.84,2.03,2.42
			c-1.31,8.41-2.64,16.83-3.95,25.24c-0.73,4.66-1.45,9.31-2.17,13.97c-0.33,2.14-0.53,2.42-2.67,2.61
			c-3.2,0.29-6.41,0.44-9.62,0.27c-3.14-0.17-6.28-0.05-9.43,0.02c-5.17,0.11-10.34,0.11-15.5-0.25c-1.22-0.09-2.44-0.09-3.66-0.13
			c-1.5-0.06-2.06-0.57-2.25-2.07c-0.86-6.89-1.72-13.79-2.58-20.68c-0.78-6.23-1.56-12.47-2.35-18.7
			c-0.16-1.29,0.27-1.83,1.57-1.84c2.62-0.03,5.24,0,7.86-0.08c4.99-0.16,9.98-0.39,14.97-0.57
			C127.08,379.21,127.92,379.24,128.76,379.24z"/>
	</g>
	<g>
		<g>
			<path class="st17" d="M179.84,425.06c-1.44-0.02-2.72,0.02-3.97-0.33c-1.62-0.45-2.2-1.54-1.64-3.12
				c0.3-0.84,0.89-1.44,1.61-1.93c1.03-0.7,2.16-1.2,3.3-1.67c4.05-1.69,8.12-3.33,12.05-5.28c4.16-2.06,7.81-4.84,11.27-7.89
				c0.68-0.6,1.31-0.77,2.19-0.64c2.78,0.42,5.53,1,8.28,1.55c3.1,0.62,6.24,0.86,9.36,1.3c0.88,0.12,1.77,0.28,2.64,0.47
				c1.5,0.32,1.7,0.63,1.31,2.12c-0.47,1.77-0.96,3.54-1.52,5.28c-0.55,1.7-1.19,3.37-1.82,5.04c-0.68,1.81-2.08,2.62-3.96,2.68
				c-1.75,0.05-3.49,0.05-5.24,0.11c-6,0.18-12,0.4-17.99,0.86c-4.38,0.34-8.73,0.88-13.09,1.28
				C181.64,424.98,180.66,425.02,179.84,425.06z"/>
			<path class="st17" d="M270.06,425.53c-5.51-0.12-11.01,0.27-16.5,0.63c-4.17,0.28-8.34,0.48-12.52,0.56
				c-0.62,0.01-1.22-0.06-1.8-0.26c-1.58-0.55-2.63-2.36-1.38-4.33c0.63-1,1.46-1.73,2.39-2.33c1.12-0.72,2.32-1.27,3.52-1.79
				c3.08-1.33,6.16-2.66,9.24-3.99c3.29-1.42,6.3-3.38,8.96-5.98c0.39-0.39,0.77-0.45,1.25-0.37c3.11,0.53,6.22,1.1,9.35,1.51
				c3.05,0.4,6.06,1.16,9.12,1.52c1.26,0.15,1.56,0.6,1.21,1.95c-0.8,3.12-1.37,6.28-1.92,9.46c-0.42,2.39-1.19,3.1-3.41,3.34
				c-1.67,0.18-3.34,0.08-5.01,0.09C271.73,425.53,270.9,425.53,270.06,425.53z"/>
			<g>
				<path class="st18" d="M349.13,203.44c-3.46-0.24-6.89-0.54-10.18-1.74c-1.6-0.59-3.17-1.24-4.66-2.09
					c-1.23-0.7-1.8-1.58-1.56-3.13c0.52-3.29,0.55-6.62,0.66-9.94c0.03-0.99,0.03-0.99-1.02-1.22c-1.79-0.39-3.6-0.69-5.34-1.27
					c-0.81-0.27-1.6-0.59-2.34-1.01c-2.3-1.3-3.68-3.25-4.12-5.85c-0.37-2.19-0.48-4.41-0.38-6.62c0.07-1.49,0.05-2.99,0.28-4.46
					c0.07-0.47-0.08-0.7-0.57-0.78c-0.59-0.09-1.18-0.21-1.73-0.42c-0.92-0.36-1.11-1.02-0.52-1.81c0.43-0.58,0.9-1.14,1.41-1.65
					c1.76-1.76,2.57-3.98,3.05-6.35c0.42-2.09,0.81-4.18,1.23-6.27c0.24-1.2,0.55-1.37,1.66-0.87c1.65,0.74,3.38,1.17,5.14,1.5
					c1.1,0.21,2.14,0.57,3.13,1.07c1.06,0.54,1.65,1.4,1.9,2.57c0.34,1.63-0.06,3.23-0.11,4.84c-0.01,0.34-0.08,0.68-0.11,1.02
					c-0.12,1.47-0.11,1.45,1.33,1.7c0.61,0.11,0.95-0.03,1.18-0.63c0.33-0.88,0.67-1.76,1.1-2.58c0.53-1,1.22-1.9,2.53-1.85
					c1.28,0.05,1.92,0.98,2.48,1.97c0.34,0.6,0.47,1.27,0.61,1.94c0.63,3.04,1.25,6.09,2.28,9.04c1.05,3.02,2.73,5.55,5.35,7.45
					c2.24,1.62,4.64,2.03,7.26,1.27c0.16-0.05,0.32-0.11,0.49-0.15c0.87-0.21,1.23,0.03,1.14,0.94c-0.15,1.49-0.14,2.98-0.27,4.46
					c-0.37,3.99-0.38,8-0.7,11.99c-0.1,1.27-0.27,2.54-0.4,3.81c-0.08,0.79-0.47,1.31-1.2,1.66c-1.65,0.8-3.26,1.67-4.63,2.92
					c-0.46,0.43-1.05,0.54-1.66,0.54C350.92,203.43,350.02,203.44,349.13,203.44z"/>
				<path d="M343.56,161.19c-0.05,1.01-0.31,2.24-1.07,3.33c-0.48,0.68-1.1,1.17-1.91,1.42c-1.06,0.33-2.2-0.14-2.71-1.11
					c-0.2-0.37-0.26-0.73,0.09-1.04c0.37-0.33,0.69-0.14,1.01,0.13c0.99,0.83,1.62,0.78,2.35-0.27c0.85-1.22,1.03-2.6,0.69-4.02
					c-0.22-0.92-0.78-1.14-1.6-0.67c-0.41,0.24-0.78,0.44-1.08-0.06c-0.26-0.45,0-0.81,0.36-1.1c0.92-0.76,2.42-0.55,3.16,0.45
					C343.35,158.91,343.58,159.79,343.56,161.19z"/>
				<path class="st19" d="M368.68,159.3c-0.06,4.46-0.56,8.41-2.05,12.19c-0.83,2.11-2.14,3.87-3.88,5.31
					c-3.21,2.67-7.56,2.76-10.84,0.18c-2.39-1.87-4.19-4.21-5.29-7.08c-1.2-3.13-1.78-6.39-2.23-9.69
					c-0.09-0.68-0.24-1.34-0.48-1.98c-0.3-0.77-0.75-1.43-1.45-1.9c-1.21-0.82-2.15-0.6-2.86,0.67c-0.56,1.01-0.87,2.12-1.31,3.19
					c-0.5,1.24-0.84,1.43-2.13,1.23c-0.17-0.03-0.33-0.07-0.5-0.11c-1.2-0.24-1.37-0.46-1.17-1.62c0.28-1.55,0.48-3.12,0.5-4.7
					c0.01-0.72-0.05-1.45-0.03-2.17c0.03-0.93-0.46-1.43-1.29-1.64c-1.28-0.33-2.56-0.65-3.84-0.94c-1.66-0.38-3.32-0.77-4.94-1.31
					c-1.57-0.52-2.97-1.32-4.06-2.57c-2.39-2.71-4.34-5.69-5.22-9.26c-0.49-2-0.71-4.02-0.17-6.07c0.3-1.13,0.78-2.16,1.47-3.1
					c0.61-0.83,1.21-0.86,1.88-0.1c0.28,0.31,0.5,0.69,0.69,1.07c1.68,3.49,4.68,4.78,8.31,4.96c2.82,0.14,5.61-0.34,8.4-0.68
					c5.18-0.63,10.32-0.59,15.27,1.19c8.44,3.04,14.04,8.77,16.23,17.61C368.3,154.55,368.74,157.1,368.68,159.3z"/>
				<path d="M317.12,156.15c0.1-1.74,0.52-3.16,1.28-4.47c0.62-1.08,0.95-1.25,2.18-1.03c3.77,0.67,7.53,1.4,11.31,2.05
					c2.94,0.51,5.89,0.9,8.72,1.92c1.08,0.39,2.17,0.78,3.13,1.42c1.15,0.77,1.97,1.76,2.1,3.19c0.03,0.29,0.02,0.6-0.01,0.89
					c-0.04,0.32-0.24,0.57-0.58,0.59c-0.41,0.03-0.66-0.24-0.66-0.62c0.01-2.16-1.5-3-3.19-3.66c-2.15-0.85-4.38-1.37-6.65-1.78
					c-4.57-0.82-9.13-1.63-13.7-2.45c-1.23-0.22-1.24-0.21-1.74,0.89c-0.39,0.86-0.64,1.77-0.73,2.7c-0.16,1.53,0.45,2.46,1.87,2.87
					c0.46,0.13,0.84,0.29,0.75,0.83c-0.09,0.53-0.54,0.59-0.99,0.58c-1.32-0.02-2.56-1.12-2.92-2.63
					C317.17,156.95,317.15,156.43,317.12,156.15z"/>
			</g>
			<path class="st20" d="M293.08,315.5c-4.78-0.07-9.54,0.3-14.3,0.69c-2.85,0.23-5.7,0.46-8.52,0.89
				c-3.11,0.47-6.22,1.05-9.23,2.01c-2.24,0.72-4.01,2.02-5.29,4c-2.22,3.46-4.02,7.1-5.14,11.09
				c-3.53,12.59-6.87,25.23-10.93,37.67c-2.6,7.97-4.74,16.1-7.1,24.15c-1.29,4.42-2.62,8.82-3.92,13.23
				c-0.26,0.9-0.45,1.82-0.68,2.73c-0.32,1.23-0.63,1.49-1.9,1.29c-1.85-0.29-3.69-0.68-5.54-0.97c-5.47-0.87-10.93-1.8-16.33-3.06
				c-1.29-0.3-2.57-0.63-3.84-0.97c-1.73-0.47-1.96-0.75-1.58-2.54c0.57-2.67,1.28-5.3,1.89-7.95c1.76-7.55,4.06-14.96,6.09-22.44
				c1.75-6.46,3.04-13.02,4.51-19.55c2.29-10.23,5.75-20.05,10.05-29.59c1.32-2.92,2.87-5.71,4.53-8.44
				c4.43-7.28,10.65-12.28,18.76-15c7.06-2.36,14.29-3.92,21.66-4.86c8.04-1.02,16.09-1.82,24.19-2.18
				c6.09-0.27,12.19-0.2,18.29-0.09c6.86,0.13,13.71,0.58,20.58,0.59c1.05,0,1.27,0.4,1.09,1.48c-0.62,3.62-2.11,6.92-3.75,10.15
				c-1.09,2.15-2.78,3.73-5.11,4.58c-3.11,1.13-6.31,1.73-9.58,2.11C305.69,315.23,299.39,315.48,293.08,315.5z"/>
			<path class="st21" d="M283.64,413.88c-2.26-0.24-4.57-0.67-6.87-1.09c-3.48-0.64-7.01-0.91-10.5-1.53
				c-2.43-0.43-4.87-0.81-7.3-1.27c-1.56-0.29-1.78-0.76-1.49-2.32c0.9-4.77,1.78-9.55,2.64-14.33c1.33-7.38,2.77-14.74,4.24-22.09
				c1.12-5.64,2.12-11.3,3.47-16.9c0.55-2.28,1.12-4.55,1.69-6.82c0.35-1.36,0.54-1.52,1.9-1.57c4.81-0.18,9.63-0.35,14.44-0.53
				c3.58-0.13,7.16-0.24,10.73,0.08c0.85,0.07,1.7,0.14,2.54,0.3c1.22,0.24,1.58,0.86,1.22,2.03c-2.7,8.8-4.95,17.72-7.25,26.63
				c-1.12,4.34-1.8,8.76-2.58,13.17c-1.25,7.09-2.86,14.11-4.36,21.15c-0.28,1.29-0.51,2.59-0.79,3.88
				C285.13,413.81,284.91,413.96,283.64,413.88z"/>
			<path class="st22" d="M206.29,245.77c1.99,0.1,3.78,0.58,5.42,1.56c0.31,0.19,0.77,0.37,0.54,0.86
				c-0.22,0.46-0.64,0.26-1.02,0.18c-1.04-0.21-2.08-0.46-3.14-0.57c-2.15-0.23-4.24,0.09-6.24,0.96c-0.62,0.27-1.24,0.55-1.86,0.84
				c-0.35,0.16-0.74,0.42-1.02-0.01c-0.26-0.4,0.07-0.74,0.35-0.99c1.43-1.34,3.09-2.26,5.03-2.59
				C205.02,245.89,205.7,245.84,206.29,245.77z"/>
			<g>
				<path class="st18" d="M209.66,259.28c-2.14-0.03-4.07,0.71-5.92,1.73c-1.31,0.72-2.57,1.51-3.99,2.02
					c-0.56,0.2-1.13,0.42-1.74,0.38c-0.7-0.05-0.98-0.49-0.73-1.14c0.21-0.53,0.64-0.89,1.07-1.25c2.03-1.71,4.29-3.08,6.65-4.28
					c0.4-0.21,0.86-0.34,1.34-0.83c-1.69,0.13-3.09,0.59-4.45,1.15c-1.78,0.72-3.52,1.52-5.28,2.29c-0.9,0.39-1.8,0.78-2.77,0.95
					c-0.42,0.08-0.89,0.14-1.14-0.33c-0.24-0.46,0.07-0.81,0.36-1.13c0.5-0.54,1.11-0.93,1.71-1.33c2.8-1.89,5.89-3.25,8.94-4.67
					c0.49-0.23,1.04-0.36,1.54-0.9c-1.89,0.11-3.52,0.68-5.13,1.28c-1.39,0.53-2.76,1.13-4.2,1.54c-0.82,0.23-1.65,0.45-2.51,0.44
					c-0.3,0-0.62-0.02-0.78-0.33c-0.18-0.35-0.06-0.66,0.16-0.94c0.32-0.41,0.74-0.71,1.17-0.99c2.9-1.9,5.96-3.5,9.15-4.81
					c2.95-1.21,5.99-1.43,9.14-0.64c4.65,1.17,9.39,1.63,14.19,1.56c10.91-0.17,21.53-2.02,31.82-5.67c2.49-0.89,4.9-1.97,7.27-3.14
					c4.62-2.29,8.2-5.76,11.21-9.88c0.95-1.31,1.89-2.63,2.75-4c0.67-1.08,0.85-1.1,1.88-0.3c0.71,0.55,1.4,1.11,2.07,1.71
					c3.98,3.61,8.18,6.97,12.4,10.28c0.67,0.53,1.28,1.13,1.94,1.66c0.95,0.75,1.08,0.93,0.08,2.01c-0.61,0.66-1.15,1.37-1.78,2.01
					c-3.95,3.96-8.09,7.68-12.78,10.78c-4.91,3.25-10.26,5.34-16,6.49c-3.84,0.77-7.67,1.61-11.58,1.99
					c-3.19,0.31-6.38,0.37-9.57,0.46c-5.6,0.16-11.15-0.28-16.67-1.23c-3.14-0.54-6.34-0.79-9.52-1.06
					c-3.9-0.32-7.63,0.41-11.15,2.17c-1.48,0.74-2.97,1.49-4.54,2.05c-0.6,0.21-1.22,0.39-1.84,0.54c-0.33,0.08-0.69,0.09-0.93-0.23
					c-0.28-0.39-0.07-0.74,0.13-1.07c0.26-0.45,0.66-0.77,1.07-1.09c1.75-1.38,3.63-2.53,5.62-3.52
					C208.77,259.77,209.21,259.52,209.66,259.28z"/>
			</g>
			<path class="st14" d="M332.99,196.72c-0.58,1.09,0.15,1.67,0.95,2.23c1.33,0.92,2.83,1.36,4.38,1.7
				c3.68,0.79,7.41,1.14,11.16,1.22c1.61,0.04,3.23,0.01,4.85,0.01c0.06,0.54-0.29,0.79-0.54,1.03c-2.93,2.83-4.63,6.38-5.92,10.17
				c-1.86,5.45-3.23,11.03-4.53,16.63c-2.98,12.82-5.64,25.71-8.46,38.56c-0.87,3.95-1.81,7.89-2.56,11.86
				c-0.79,4.18-1.37,8.41-2.07,12.61c-0.21,1.26-0.5,2.5-0.72,3.76c-0.13,0.71-0.49,1-1.22,0.98c-2.17-0.07-4.35-0.08-6.52-0.15
				c-7.24-0.23-14.48-0.57-21.73-0.41c-4.22,0.09-8.43,0.27-12.65,0.15c-0.77-0.02-1.54-0.03-2.3-0.12
				c-0.67-0.08-0.77-0.32-0.5-0.97c0.13-0.31,0.29-0.61,0.45-0.92c3.49-6.8,6.55-13.78,8.98-21.02c3.95-11.76,7.27-23.7,9.47-35.92
				c1.56-8.68,3.14-17.35,4.52-26.06c0.82-5.17,1.71-10.34,2.58-15.5c0.17-0.98,0.28-1.09,1.39-1.02c3.23,0.18,6.46,0.37,9.69,0.6
				c3.32,0.23,6.63,0.46,9.96,0.41C332.09,196.53,332.53,196.39,332.99,196.72z"/>
			<path class="st23" d="M321.33,208.3c-0.04,2.2-0.65,4.28-1.43,6.32c-1.09,2.85-2.74,5.39-4.32,7.96
				c-3.99,6.52-8.58,12.61-13.4,18.52c-0.48,0.59-1,1.16-1.56,1.69c-0.91,0.85-1.58,0.82-2.61,0.12c-4.13-2.82-7.85-6.14-11.55-9.49
				c-2.4-2.18-4.82-4.32-7.22-6.5c-0.57-0.51-1.12-1.05-1.62-1.63c-0.77-0.91-0.79-1.65-0.16-2.68c0.11-0.18,0.23-0.36,0.37-0.52
				c4.61-5.64,8.91-11.54,13.83-16.92c2.95-3.23,6.29-5.99,10.12-8.14c3.13-1.76,6.42-2.44,9.97-1.55c4.5,1.14,9.01,4.95,9.4,10.53
				C321.19,206.77,321.34,207.53,321.33,208.3z"/>
		</g>
		<g>
			<path class="st24" d="M335.83,360.38c-0.19,1.26-0.08,2.63-0.41,3.97c-0.54,2.16-1.65,2.92-3.89,2.75
				c-2.29-0.18-4.59-0.25-6.88-0.38c-2.01-0.11-2.83-0.88-3.03-2.87c-0.13-1.23-0.25-2.46-0.25-3.69c-0.01-1.88,0.94-2.62,2.79-2.29
				c0.71,0.13,1.43,0.26,2.12,0.47c2.19,0.66,4.37,0.51,6.57,0.07c0.25-0.05,0.5-0.12,0.75-0.15
				C335.06,358.08,335.86,358.81,335.83,360.38z"/>
			<path class="st7" d="M323.03,406.12c-2.65,0.77-5.1,1.61-7.53,2.51c-5.87,2.18-11.71,4.44-17.66,6.4
				c-1.1,0.36-2.2,0.68-3.37,0.65c-1.52-0.05-2.16-0.76-2.04-2.28c0.05-0.7,0.35-1.31,0.65-1.93c1.01-2.09,2.6-3.68,4.45-5.02
				c2.7-1.96,5.64-3.52,8.66-4.92c5.53-2.56,10.88-5.5,16.55-7.76c0.67-0.26,0.84-0.67,0.85-1.36c0.12-8.14,0.37-16.28,0.38-24.43
				c0-0.6-0.36-1.36,0.18-1.79c0.46-0.36,1.16-0.02,1.75-0.04c1.58-0.07,3.15-0.12,4.73-0.18c0.26-0.01,0.51-0.02,0.77-0.01
				c1.16,0.01,1.25,0.09,1.28,1.21c0.01,0.38,0.01,0.77,0,1.15c-0.24,6.35-0.28,12.7-0.29,19.05c0,1.71,0.07,3.42-0.03,5.12
				c-0.06,1.06,0.37,1.58,1.25,2.07c5.56,3.16,11.09,6.36,16.62,9.57c2.11,1.23,4.08,2.64,5.71,4.48c1.08,1.22,1.83,2.56,1.81,4.24
				c-0.02,1.89-1.34,3.11-3.23,2.9c-0.72-0.08-1.42-0.28-2.1-0.52c-1.97-0.7-3.87-1.56-5.78-2.4c-4.18-1.82-8.43-3.49-12.52-5.51
				c-0.19-0.09-0.38-0.2-0.69-0.14c-0.42,1.22-0.32,2.55-0.54,3.84c-0.32,1.93-0.5,3.89-1,5.79c-0.14,0.54-0.31,1.07-0.6,1.55
				c-1.41,2.36-3.13,2.71-5.57,1.86c-1.24-0.43-1.8-1.51-2.04-2.74c-0.27-1.38-0.44-2.78-0.51-4.18c-0.1-2.04-0.14-4.09-0.07-6.14
				C323.09,406.86,323.05,406.57,323.03,406.12z"/>
			<path class="st17" d="M328.12,347.75c4.47,0,8.95,0,13.42,0c1.62,0,1.7,0.14,1.22,1.69c-1.33,4.24-3.91,7.52-7.62,9.93
				c-1.43,0.93-3,1.4-4.69,1.52c-4.03,0.28-7.78-0.5-11.21-2.75c-2.38-1.56-3.98-3.7-4.99-6.31c-0.37-0.95-0.64-1.94-0.91-2.92
				c-0.3-1.11-0.11-1.35,1.09-1.35c2.3-0.01,4.6,0,6.91,0c2.26,0,4.52,0,6.78,0C328.12,347.63,328.12,347.69,328.12,347.75z"/>
			<path class="st17" d="M298.05,419.66c-3.98-0.02-7.18-3.28-7.15-7.29c0.03-3.84,3.19-7.03,7.01-6.98
				c4.08,0.05,7.13,3.2,7.22,7.12C305.21,416.53,302.02,419.68,298.05,419.66z"/>
			<path class="st17" d="M327.15,423.91c-3.98-0.02-7.18-3.28-7.15-7.29c0.03-3.84,3.19-7.03,7.01-6.98
				c4.08,0.05,7.13,3.2,7.22,7.12C334.32,420.79,331.12,423.93,327.15,423.91z"/>
			<path class="st17" d="M356.06,419.8c-3.98-0.02-7.18-3.28-7.15-7.29c0.03-3.84,3.19-7.03,7.01-6.98c4.08,0.05,7.13,3.2,7.22,7.12
				C363.23,416.68,360.04,419.82,356.06,419.8z"/>
			<path class="st17" d="M272.39,307.2c0.14-5.76,0.69-11.49,1.14-17.23c0.06-0.72,0.14-1.44,0.37-2.14
				c0.47-1.42,1.44-2.18,2.92-2.26c0.3-0.02,0.6-0.01,0.89,0.01c1.96,0.13,3.04,1.18,3.15,3.16c0.09,1.53,0.02,3.07-0.08,4.6
				c-0.31,4.68-0.59,9.36-0.94,14.04c-0.19,2.59-0.42,5.18-0.95,7.74c-0.15,0.72-0.35,1.41-0.75,2.02
				c-1.14,1.76-3.24,1.93-4.68,0.42c-0.86-0.91-1.34-1.91-1.27-3.21C272.31,311.97,272.33,309.58,272.39,307.2z"/>
			<path class="st17" d="M300.65,287.13c-8.01,0.19-14.52,0.52-21.03,0.94c-3.1,0.2-6.22,0.32-9.32-0.14
				c-0.72-0.11-1.42-0.27-2.07-0.62c-1.69-0.93-2.39-2.71-2-4.28c0.73-2.94,2.39-4.94,5.3-5.85c2.78-0.87,5.65-1.28,8.54-1.53
				c4.37-0.38,8.76-0.64,13.13-1.01c5.52-0.47,11.04-0.91,16.58-1.18c2.43-0.12,4.85-0.25,7.28-0.34
				c5.07-0.18,10.14-0.33,15.21-0.49c0.21-0.01,0.43-0.03,0.64-0.02c0.93,0.06,1.28,0.47,1.18,1.42c-0.06,0.51-0.16,1.01-0.26,1.51
				c-0.63,2.91-1.25,5.83-1.89,8.74c-0.22,1.01-0.35,1.09-1.49,1.2c-4.58,0.45-9.19,0.6-13.78,0.85
				C310.83,286.64,304.99,286.92,300.65,287.13z"/>
			<path class="st25" d="M424.13,204.24c0,0.04-0.01,0.08-0.02,0.12c-0.29,1.34-0.81,2.61-1.35,3.86c-1.22,2.86-2.44,5.72-3.7,8.57
				c-2.62,5.95-4.28,12.22-5.81,18.51c-1.92,7.91-3.64,15.86-5.07,23.87c-0.74,4.11-1.19,8.27-1.64,12.42
				c-0.54,5.09-1.15,10.16-1.67,15.25c-0.42,4.16-0.77,8.32-1.12,12.48c-0.52,5.99-0.89,11.99-1.81,17.93
				c-0.53,3.37-1.19,6.74-2.44,9.92c-4.05,10.35-11.07,17.56-22.12,20.32c-5.18,1.3-10.45,2.02-15.8,2.14
				c-9.26,0.2-18.5-0.28-27.74-0.66c-5.11-0.21-10.2-0.76-15.3-1.08c-3.11-0.2-6.22-0.29-9.33-0.39c-4.05-0.14-8.1-0.25-12.15-0.35
				c-4.13-0.09-8.27,0.06-12.4,0.25c-4.82,0.23-9.63,0.08-14.44-0.24c-2.76-0.18-5.53-0.32-8.28-0.64c-2.06-0.24-4.09-0.59-6.07-1.2
				c-0.59-1.54-0.76-3.28-0.51-5.19c0.37-2.88,1.06-5.7,1.94-8.46c1.12-3.5,3.3-6.06,6.74-7.59c3.4-1.51,6.97-2.22,10.64-2.53
				c5.77-0.49,11.57-0.62,17.37-0.82c7.33-0.26,14.66-0.46,21.98-0.81c4.17-0.2,8.32-0.76,12.4-1.68c0.84-0.19,1.65-0.45,2.43-0.78
				c1.78-0.77,3.17-1.92,3.99-3.76c1.44-3.25,2.5-6.63,2.96-10.15c0.92-6.93,2.39-13.77,3.74-20.62c1.88-9.57,3.66-19.17,5.54-28.74
				c1.69-8.61,3.33-17.23,5.61-25.72c1.34-4.95,3.08-9.74,5.49-14.29c1.29-2.42,2.93-4.59,4.79-6.6c1.31-1.41,3-2.22,4.81-2.82
				c3.26-1.07,6.64-1.46,10.06-1.65c6.38-0.36,12.78-0.55,19.18-0.37c7.7,0.3,15.42,0.37,23.13,0.89
				C420.15,203.76,422.15,203.91,424.13,204.24z"/>
			<path class="st26" d="M424.13,204.24c-1.98-0.33-3.98-0.48-5.97-0.61c-7.71-0.52-15.43-0.59-23.13-0.89
				c-6.4-0.18-12.8,0.01-19.18,0.37c-3.42,0.19-6.8,0.58-10.06,1.65c-1.81,0.6-3.5,1.41-4.81,2.82c-1.86,2.01-3.5,4.18-4.79,6.6
				c-2.41,4.55-4.15,9.34-5.49,14.29c-2.28,8.49-3.92,17.11-5.61,25.72c-1.88,9.57-3.66,19.17-5.54,28.74
				c-1.35,6.85-2.82,13.69-3.74,20.62c-0.46,3.52-1.52,6.9-2.96,10.15c-0.82,1.84-2.21,2.99-3.99,3.76
				c-0.78,0.33-1.59,0.59-2.43,0.78c-4.08,0.92-8.23,1.48-12.4,1.68c-7.32,0.35-14.65,0.55-21.98,0.81
				c-5.8,0.2-11.6,0.33-17.37,0.82c-3.67,0.31-7.24,1.02-10.64,2.53c-3.44,1.53-5.62,4.09-6.74,7.59c-0.88,2.76-1.57,5.58-1.94,8.46
				c-0.25,1.91-0.08,3.65,0.51,5.19c-0.1-0.03-0.21-0.07-0.31-0.1c-0.81-0.26-1.6-0.57-2.35-0.99c-4.01-2.22-5.82-5.79-5.22-10.34
				c0.37-2.88,1.06-5.7,1.94-8.46c1.12-3.5,3.3-6.06,6.74-7.58c3.4-1.51,6.97-2.22,10.64-2.54c5.77-0.49,11.57-0.61,17.37-0.82
				c7.33-0.25,14.66-0.46,21.98-0.8c4.17-0.2,8.32-0.77,12.4-1.69c0.84-0.19,1.65-0.44,2.43-0.78c1.78-0.76,3.17-1.92,3.99-3.75
				c1.44-3.26,2.5-6.63,2.96-10.15c0.92-6.94,2.39-13.77,3.74-20.63c1.88-9.57,3.66-19.16,5.54-28.74
				c1.69-8.61,3.33-17.23,5.61-25.71c1.34-4.96,3.08-9.75,5.49-14.29c1.29-2.43,2.93-4.6,4.79-6.61c1.31-1.41,3-2.22,4.81-2.81
				c3.26-1.08,6.64-1.47,10.06-1.66c6.38-0.36,12.78-0.55,19.18-0.36c7.7,0.3,15.42,0.37,23.13,0.89c2.97,0.2,5.95,0.41,8.84,1.23
				c0.58,0.17,1.16,0.31,1.71,0.52C423.64,200.05,424.62,201.85,424.13,204.24z"/>
		</g>
	</g>
</g>
<g id="DESIGNED_BY_FREEPIK" class="st27">
	<g class="st28">
		<g id="XMLID_29_">
			<g id="XMLID_48_">
				<path id="XMLID_56_" class="st29" d="M260.1,465.47c-0.43,0.44-0.8,0.93-1.11,1.45l-0.47-0.24c-0.07-0.3-0.35-0.5-0.66-0.47
					c-0.33,0.04-0.57,0.34-0.53,0.67c0.04,0.33,0.34,0.57,0.67,0.53c0.07-0.01,0.13-0.03,0.18-0.05l0.45,0.23
					c-0.25,0.55-0.43,1.14-0.54,1.74l0.75,0.13c0.23-1.31,0.85-2.51,1.79-3.47L260.1,465.47z"/>
				<path id="XMLID_55_" class="st29" d="M265.59,463.16c-0.17,0-0.34,0.01-0.51,0.02l-0.07-0.63c0.19-0.15,0.3-0.39,0.27-0.64
					c-0.05-0.39-0.4-0.67-0.8-0.63c-0.39,0.05-0.67,0.4-0.63,0.8c0.03,0.25,0.19,0.46,0.4,0.56l0.07,0.62
					c-0.71,0.12-1.4,0.33-2.06,0.65l0.33,0.68c0.93-0.45,1.94-0.67,3-0.67c0.5,0,0.99,0.05,1.47,0.16l0.16-0.74
					C266.69,463.22,266.14,463.16,265.59,463.16z"/>
				<path id="XMLID_54_" class="st29" d="M272.19,465.71c0.33-0.04,0.57-0.34,0.53-0.67c-0.04-0.33-0.34-0.57-0.67-0.53
					c-0.31,0.04-0.54,0.3-0.53,0.61l-0.42,0.36c-0.42-0.43-0.89-0.81-1.41-1.14l-0.4,0.64c1.13,0.71,2.02,1.73,2.56,2.93l0.69-0.31
					c-0.25-0.55-0.57-1.07-0.94-1.55l0.4-0.35C272.06,465.72,272.13,465.72,272.19,465.71z"/>
				<path id="XMLID_53_" class="st29" d="M265.04,473.37c-0.39,0.02-0.77,0.03-1.16,0.03c-0.88,0-1.73-0.06-2.48-0.18
					c-0.39-0.06-0.85-0.15-1.27-0.29c1.05,1.86,3.07,3.13,5.39,3.13c2.86,0,5.26-1.92,5.95-4.5c-0.68,0.45-1.51,0.83-2.46,1.12
					C267.84,473.05,266.46,473.29,265.04,473.37z"/>
				<path id="XMLID_49_" class="st29" d="M265.59,464.68c-3.35,0-6.08,2.67-6.08,5.94c0,0.43,0.05,0.85,0.14,1.26
					c0.67,0.48,2.71,0.89,5.35,0.73c2.88-0.17,5.3-0.96,6.67-2.16c-0.01-0.19-0.02-0.39-0.05-0.58
					C271.24,466.91,268.65,464.68,265.59,464.68z M263.43,471.19c-1.02,0-1.85-0.83-1.85-1.85c0-1.02,0.83-1.85,1.85-1.85
					c1.02,0,1.85,0.83,1.85,1.85C265.28,470.36,264.45,471.19,263.43,471.19z M268.17,470.29c-0.75,0-1.36-0.61-1.36-1.36
					s0.61-1.36,1.36-1.36c0.75,0,1.36,0.61,1.36,1.36S268.92,470.29,268.17,470.29z"/>
			</g>
			<path id="XMLID_46_" class="st29" d="M281.6,466.55c-0.29-0.12-0.81-0.31-1.38-0.24c-0.55,0.07-0.84,0.34-0.84,1.01v0.87h2.23
				v1.72h-2.23v5.45h-1.93v-5.45h-1.34v-1.72h1.34v-0.89c0-1.68,0.9-2.78,2.57-2.78c0.64,0,1.16,0.12,1.59,0.31L281.6,466.55z"/>
			<path id="XMLID_44_" class="st29" d="M286.3,469.88c-0.18-0.03-0.36-0.05-0.53-0.05c-0.9,0-1.51,0.55-1.51,1.61v3.91h-1.93v-7.17
				h1.87v0.78c0.45-0.67,1.14-0.98,2.02-0.98c0.41,0,0.85,0.13,1.09,0.34L286.3,469.88z"/>
			<path id="XMLID_41_" class="st29" d="M293.97,471.76c0,0.22-0.01,0.49-0.04,0.65h-5.08c0.21,1.04,0.93,1.49,1.84,1.49
				c0.62,0,1.3-0.25,1.81-0.69l1.13,1.24c-0.81,0.75-1.85,1.09-3.06,1.09c-2.2,0-3.72-1.5-3.72-3.75c0-2.26,1.48-3.8,3.63-3.8
				C292.54,467.99,293.96,469.52,293.97,471.76z M288.85,471.09h3.18c-0.18-0.92-0.73-1.44-1.56-1.44
				C289.55,469.65,289.02,470.2,288.85,471.09z"/>
			<path id="XMLID_38_" class="st29" d="M301.62,471.76c0,0.22-0.01,0.49-0.04,0.65h-5.08c0.21,1.04,0.93,1.49,1.84,1.49
				c0.62,0,1.3-0.25,1.81-0.69l1.13,1.24c-0.81,0.75-1.85,1.09-3.06,1.09c-2.2,0-3.72-1.5-3.72-3.75c0-2.26,1.48-3.8,3.63-3.8
				C300.2,467.99,301.61,469.52,301.62,471.76z M296.5,471.09h3.18c-0.18-0.92-0.73-1.44-1.56-1.44
				C297.21,469.65,296.67,470.2,296.5,471.09z"/>
			<path id="XMLID_35_" class="st29" d="M309.96,471.76c0,2.15-1.49,3.77-3.47,3.77c-0.96,0-1.64-0.38-2.11-0.93v3.71h-1.92v-10.13
				h1.89v0.79c0.47-0.58,1.15-0.98,2.14-0.98C308.47,467.99,309.96,469.61,309.96,471.76z M304.29,471.76
				c0,1.13,0.75,1.98,1.84,1.98c1.14,0,1.85-0.88,1.85-1.98c0-1.1-0.71-1.98-1.85-1.98C305.03,469.79,304.29,470.63,304.29,471.76z"
				/>
			<path id="XMLID_32_" class="st29" d="M313.07,465.84c0,0.7-0.54,1.23-1.24,1.23c-0.7,0-1.23-0.53-1.23-1.23
				c0-0.7,0.53-1.24,1.23-1.24C312.53,464.59,313.07,465.14,313.07,465.84z M312.81,475.35h-1.93v-7.17h1.93V475.35z"/>
			<path id="XMLID_30_" class="st29" d="M316.03,470.74l2.7-2.55h2.37l-3.48,3.38l3.5,3.8h-2.38l-2.72-2.9v2.9h-1.93V464.7h1.93
				V470.74z"/>
		</g>
		<g>
			<path class="st29" d="M184.41,475.29v-1.05c-0.53,0.72-1.39,1.23-2.39,1.23c-1.85,0-3.15-1.41-3.15-3.71
				c0-2.26,1.29-3.72,3.15-3.72c0.95,0,1.82,0.47,2.39,1.25v-3.76h1.1v9.77H184.41z M184.41,473.37v-3.21
				c-0.4-0.62-1.24-1.14-2.12-1.14c-1.42,0-2.27,1.17-2.27,2.74c0,1.57,0.85,2.72,2.27,2.72
				C183.17,474.48,184.02,473.99,184.41,473.37z"/>
			<path class="st29" d="M186.93,471.74c0-2.05,1.46-3.71,3.49-3.71c2.14,0,3.4,1.67,3.4,3.79v0.28h-5.73
				c0.09,1.33,1.03,2.45,2.55,2.45c0.81,0,1.63-0.32,2.18-0.89l0.53,0.72c-0.7,0.7-1.65,1.08-2.81,1.08
				C188.44,475.46,186.93,473.96,186.93,471.74z M190.4,468.95c-1.51,0-2.26,1.27-2.31,2.36h4.64
				C192.72,470.25,192.01,468.95,190.4,468.95z"/>
			<path class="st29" d="M194.61,474.35l0.57-0.79c0.47,0.54,1.36,1.01,2.33,1.01c1.08,0,1.67-0.51,1.67-1.22
				c0-1.71-4.38-0.66-4.38-3.28c0-1.1,0.95-2.04,2.64-2.04c1.2,0,2.05,0.45,2.62,1.03l-0.51,0.76c-0.42-0.51-1.2-0.89-2.11-0.89
				c-0.97,0-1.57,0.48-1.57,1.11c0,1.55,4.38,0.53,4.38,3.28c0,1.19-0.95,2.14-2.78,2.14C196.31,475.46,195.32,475.11,194.61,474.35
				z"/>
			<path class="st29" d="M201.48,466.47c0-0.41,0.34-0.75,0.73-0.75c0.41,0,0.75,0.34,0.75,0.75c0,0.41-0.34,0.73-0.75,0.73
				C201.81,467.2,201.48,466.88,201.48,466.47z M201.67,475.29v-7.07h1.1v7.07H201.67z"/>
			<path class="st29" d="M204.58,477.11l0.56-0.82c0.59,0.7,1.29,0.97,2.3,0.97c1.17,0,2.27-0.57,2.27-2.12v-1.01
				c-0.51,0.72-1.38,1.26-2.37,1.26c-1.85,0-3.15-1.38-3.15-3.66c0-2.27,1.29-3.68,3.15-3.68c0.95,0,1.8,0.47,2.37,1.25v-1.07h1.1
				v6.87c0,2.34-1.64,3.08-3.37,3.08C206.24,478.16,205.42,477.93,204.58,477.11z M209.71,473.25v-3.09
				c-0.38-0.62-1.23-1.14-2.11-1.14c-1.42,0-2.27,1.13-2.27,2.7c0,1.55,0.85,2.7,2.27,2.7
				C208.48,474.41,209.33,473.87,209.71,473.25z"/>
			<path class="st29" d="M217.41,475.29v-4.63c0-1.24-0.63-1.64-1.58-1.64c-0.86,0-1.68,0.53-2.09,1.1v5.17h-1.1v-7.07h1.1v1.03
				c0.5-0.59,1.46-1.2,2.52-1.2c1.48,0,2.26,0.75,2.26,2.29v4.97H217.41z"/>
			<path class="st29" d="M219.93,471.74c0-2.05,1.46-3.71,3.49-3.71c2.14,0,3.4,1.67,3.4,3.79v0.28h-5.73
				c0.09,1.33,1.03,2.45,2.55,2.45c0.81,0,1.63-0.32,2.18-0.89l0.53,0.72c-0.7,0.7-1.66,1.08-2.81,1.08
				C221.44,475.46,219.93,473.96,219.93,471.74z M223.4,468.95c-1.51,0-2.26,1.27-2.31,2.36h4.64
				C225.72,470.25,225.02,468.95,223.4,468.95z"/>
			<path class="st29" d="M233.35,475.29v-1.05c-0.53,0.72-1.39,1.23-2.39,1.23c-1.85,0-3.15-1.41-3.15-3.71
				c0-2.26,1.29-3.72,3.15-3.72c0.95,0,1.82,0.47,2.39,1.25v-3.76h1.1v9.77H233.35z M233.35,473.37v-3.21
				c-0.4-0.62-1.25-1.14-2.12-1.14c-1.42,0-2.27,1.17-2.27,2.74c0,1.57,0.85,2.72,2.27,2.72
				C232.1,474.48,232.95,473.99,233.35,473.37z"/>
			<path class="st29" d="M239.69,475.29v-9.77h1.1v3.76c0.57-0.78,1.42-1.25,2.39-1.25c1.85,0,3.15,1.46,3.15,3.72
				c0,2.3-1.3,3.71-3.15,3.71c-1,0-1.86-0.51-2.39-1.23v1.05H239.69z M242.9,474.48c1.44,0,2.29-1.16,2.29-2.72
				c0-1.57-0.85-2.74-2.29-2.74c-0.86,0-1.73,0.53-2.11,1.14v3.21C241.17,473.99,242.04,474.48,242.9,474.48z"/>
			<path class="st29" d="M247.53,477.06c0.16,0.07,0.43,0.12,0.6,0.12c0.48,0,0.81-0.16,1.05-0.75l0.47-1.07l-2.96-7.15h1.19
				l2.36,5.8l2.34-5.8h1.2l-3.54,8.51c-0.42,1.03-1.14,1.42-2.08,1.44c-0.23,0-0.6-0.04-0.81-0.1L247.53,477.06z"/>
		</g>
	</g>
</g>
</svg>
